<?xml version="1.0" encoding="UTF-8" standalone="no"?>
<!-- Created with Inkscape (http://www.inkscape.org/) -->

<svg
   xmlns:dc="http://purl.org/dc/elements/1.1/"
   xmlns:cc="http://creativecommons.org/ns#"
   xmlns:rdf="http://www.w3.org/1999/02/22-rdf-syntax-ns#"
   xmlns:svg="http://www.w3.org/2000/svg"
   xmlns="http://www.w3.org/2000/svg"
   xmlns:xlink="http://www.w3.org/1999/xlink"
   xmlns:sodipodi="http://sodipodi.sourceforge.net/DTD/sodipodi-0.dtd"
   xmlns:inkscape="http://www.inkscape.org/namespaces/inkscape"
   width="256"
   height="256"
   viewBox="0 0 67.733332 67.733332"
   version="1.1"
   id="svg841"
   inkscape:version="0.92.2 (unknown)"
   sodipodi:docname="logo.svg"
   inkscape:export-filename="/home/ben/Dev/streets/assets/pack/logo.png"
   inkscape:export-xdpi="96"
   inkscape:export-ydpi="96"
   shape-rendering="crispEdges">
  <sodipodi:namedview
     id="base"
     pagecolor="#ffffff"
     bordercolor="#666666"
     borderopacity="1.0"
     inkscape:pageopacity="0.0"
     inkscape:pageshadow="2"
     inkscape:zoom="2"
     inkscape:cx="136.66521"
     inkscape:cy="174.54929"
     inkscape:document-units="px"
     inkscape:current-layer="layer1"
     showgrid="true"
     units="px"
     inkscape:window-width="1871"
     inkscape:window-height="1056"
     inkscape:window-x="49"
     inkscape:window-y="24"
     inkscape:window-maximized="1"
     inkscape:snap-global="true">
    <inkscape:grid
       type="xygrid"
       id="grid1386" />
  </sodipodi:namedview>
  <defs
     id="defs835">
    <linearGradient
       inkscape:collect="always"
       id="linearGradient886">
      <stop
         style="stop-color:#ff0000;stop-opacity:1"
         offset="0"
         id="stop882" />
      <stop
         style="stop-color:#800000;stop-opacity:1"
         offset="1"
         id="stop884" />
    </linearGradient>
    <linearGradient
       inkscape:collect="always"
       xlink:href="#linearGradient886"
       id="linearGradient905"
       gradientUnits="userSpaceOnUse"
       gradientTransform="matrix(1.5565669,0,0,2.0102456,61.073986,-171.04648)"
       x1="-8.4666662"
       y1="203.86667"
       x2="-8.4666662"
       y2="216.56667" />
    <linearGradient
       inkscape:collect="always"
       xlink:href="#linearGradient886"
       id="linearGradient907"
       gradientUnits="userSpaceOnUse"
       gradientTransform="matrix(1.181185,0,0,1.181185,46.847648,-1.7349439)"
       x1="-8.4666662"
       y1="203.86667"
       x2="-8.4666662"
       y2="216.56667" />
    <linearGradient
       inkscape:collect="always"
       xlink:href="#linearGradient886"
       id="linearGradient909"
       gradientUnits="userSpaceOnUse"
       gradientTransform="matrix(1.1785784,0,0,1.1785784,45.71829,-1.0955881)"
       x1="-8.4666662"
       y1="203.86667"
       x2="-8.4666662"
       y2="216.56667" />
    <linearGradient
       inkscape:collect="always"
       xlink:href="#linearGradient886"
       id="linearGradient911"
       gradientUnits="userSpaceOnUse"
       gradientTransform="matrix(1.1923361,0,0,1.1923361,44.888488,-3.9739241)"
       x1="-8.4666662"
       y1="203.86667"
       x2="-8.4666662"
       y2="216.56667" />
    <linearGradient
       inkscape:collect="always"
       xlink:href="#linearGradient886"
       id="linearGradient913"
       gradientUnits="userSpaceOnUse"
       gradientTransform="matrix(1.1923361,0,0,1.1923361,43.775551,-3.9739241)"
       x1="-8.4666662"
       y1="203.86667"
       x2="-8.4666662"
       y2="216.56667" />
    <linearGradient
       inkscape:collect="always"
       xlink:href="#linearGradient886"
       id="linearGradient915"
       gradientUnits="userSpaceOnUse"
       gradientTransform="matrix(1.181185,0,0,1.181185,42.653648,-1.7349419)"
       x1="-8.4666662"
       y1="203.86667"
       x2="-8.4666662"
       y2="216.56667" />
    <linearGradient
       inkscape:collect="always"
       xlink:href="#linearGradient886"
       id="linearGradient917"
       gradientUnits="userSpaceOnUse"
       gradientTransform="matrix(1.4454749,0,0,1.8667746,38.823256,-141.69888)"
       x1="-8.4666662"
       y1="203.86667"
       x2="-8.4666662"
       y2="216.56667" />
  </defs>
  <metadata
     id="metadata838">
    <rdf:RDF>
      <cc:Work
         rdf:about="">
        <dc:format>image/svg+xml</dc:format>
        <dc:type
           rdf:resource="http://purl.org/dc/dcmitype/StillImage" />
        <dc:title></dc:title>
      </cc:Work>
    </rdf:RDF>
  </metadata>
  <g
     inkscape:label="Layer 1"
     inkscape:groupmode="layer"
     id="layer1"
     transform="translate(0,-229.26667)">
    <rect
       style="opacity:0;fill:#ffffff;fill-opacity:1;stroke:none;stroke-width:1.58749998;stroke-linecap:round;stroke-linejoin:round;stroke-miterlimit:4;stroke-dasharray:none;stroke-dashoffset:0;stroke-opacity:1;paint-order:fill markers stroke"
       id="rect3978"
       width="67.73333"
       height="67.73333"
       x="0"
       y="229.26666" />
    <g
       style="stroke-width:3.17499996;fill:#f2f2f2;stroke:#f2f2f2;stroke-miterlimit:4;stroke-dasharray:none"
       transform="matrix(0.48296291,0.12940952,-0.12940952,0.48296291,40.669614,151.43881)"
       id="g3913">
      <ellipse
         style="opacity:1;fill:#f2f2f2;fill-opacity:1;stroke:#f2f2f2;stroke-width:3.17499996;stroke-linecap:round;stroke-linejoin:round;stroke-miterlimit:4;stroke-dasharray:none;stroke-dashoffset:0;stroke-opacity:1;paint-order:fill markers stroke"
         id="ellipse3901"
         cx="-4.2094951"
         cy="226.70143"
         rx="2.0579753"
         ry="1.9176589"
         inkscape:transform-center-x="2.7127857"
         inkscape:transform-center-y="-1.0289877" />
      <ellipse
         inkscape:transform-center-y="-2.8866735"
         inkscape:transform-center-x="-0.29180798"
         ry="1.9176589"
         rx="2.0579753"
         cy="59.357689"
         cx="216.87053"
         id="ellipse3903"
         style="opacity:1;fill:#f2f2f2;fill-opacity:1;stroke:#f2f2f2;stroke-width:3.17499996;stroke-linecap:round;stroke-linejoin:round;stroke-miterlimit:4;stroke-dasharray:none;stroke-dashoffset:0;stroke-opacity:1;paint-order:fill markers stroke"
         transform="rotate(75)" />
      <ellipse
         transform="rotate(135)"
         style="opacity:1;fill:#f2f2f2;fill-opacity:1;stroke:#f2f2f2;stroke-width:3.17499996;stroke-linecap:round;stroke-linejoin:round;stroke-miterlimit:4;stroke-dasharray:none;stroke-dashoffset:0;stroke-opacity:1;paint-order:fill markers stroke"
         id="ellipse3905"
         cx="159.37527"
         cy="-161.00038"
         rx="2.0579753"
         ry="1.9176589"
         inkscape:transform-center-x="-2.6458335"
         inkscape:transform-center-y="-1.1906199" />
      <ellipse
         inkscape:transform-center-y="2.2475276"
         inkscape:transform-center-x="-1.8348359"
         ry="1.9176589"
         rx="2.0579753"
         cy="-198.99768"
         cx="-115.2818"
         id="ellipse3907"
         style="opacity:1;fill:#f2f2f2;fill-opacity:1;stroke:#f2f2f2;stroke-width:3.17499996;stroke-linecap:round;stroke-linejoin:round;stroke-miterlimit:4;stroke-dasharray:none;stroke-dashoffset:0;stroke-opacity:1;paint-order:fill markers stroke"
         transform="rotate(-150)" />
      <ellipse
         transform="rotate(-75)"
         style="opacity:1;fill:#f2f2f2;fill-opacity:1;stroke:#f2f2f2;stroke-width:3.17499996;stroke-linecap:round;stroke-linejoin:round;stroke-miterlimit:4;stroke-dasharray:none;stroke-dashoffset:0;stroke-opacity:1;paint-order:fill markers stroke"
         id="ellipse3909"
         cx="-223.07086"
         cy="56.466267"
         rx="2.0579753"
         ry="1.9176589"
         inkscape:transform-center-x="1.6960527"
         inkscape:transform-center-y="2.3540328" />
      <ellipse
         style="opacity:1;fill:#f2f2f2;fill-opacity:1;stroke:#f2f2f2;stroke-width:3.17499996;stroke-linecap:round;stroke-linejoin:round;stroke-miterlimit:4;stroke-dasharray:none;stroke-dashoffset:0;stroke-opacity:1;paint-order:fill markers stroke"
         id="ellipse3911"
         cx="-1.403165"
         cy="227.63689"
         rx="1.9644309"
         ry="1.9176589" />
    </g>
    <g
       id="g3927"
       transform="matrix(0.35355339,0.35355339,-0.35355339,0.35355339,100.55447,172.85705)"
       style="stroke-width:3.17499994;fill:#f2f2f2;stroke:#f2f2f2;stroke-miterlimit:4;stroke-dasharray:none">
      <ellipse
         inkscape:transform-center-y="-1.0289877"
         inkscape:transform-center-x="2.7127857"
         ry="1.9176589"
         rx="2.0579753"
         cy="226.70143"
         cx="-4.2094951"
         id="ellipse3915"
         style="opacity:1;fill:#f2f2f2;fill-opacity:1;stroke:#f2f2f2;stroke-width:3.17499994;stroke-linecap:round;stroke-linejoin:round;stroke-miterlimit:4;stroke-dasharray:none;stroke-dashoffset:0;stroke-opacity:1;paint-order:fill markers stroke" />
      <ellipse
         transform="rotate(75)"
         style="opacity:1;fill:#f2f2f2;fill-opacity:1;stroke:#f2f2f2;stroke-width:3.17499994;stroke-linecap:round;stroke-linejoin:round;stroke-miterlimit:4;stroke-dasharray:none;stroke-dashoffset:0;stroke-opacity:1;paint-order:fill markers stroke"
         id="ellipse3917"
         cx="216.87053"
         cy="59.357689"
         rx="2.0579753"
         ry="1.9176589"
         inkscape:transform-center-x="-0.29180798"
         inkscape:transform-center-y="-2.8866735" />
      <ellipse
         inkscape:transform-center-y="-1.1906199"
         inkscape:transform-center-x="-2.6458335"
         ry="1.9176589"
         rx="2.0579753"
         cy="-161.00038"
         cx="159.37527"
         id="ellipse3919"
         style="opacity:1;fill:#f2f2f2;fill-opacity:1;stroke:#f2f2f2;stroke-width:3.17499994;stroke-linecap:round;stroke-linejoin:round;stroke-miterlimit:4;stroke-dasharray:none;stroke-dashoffset:0;stroke-opacity:1;paint-order:fill markers stroke"
         transform="rotate(135)" />
      <ellipse
         transform="rotate(-150)"
         style="opacity:1;fill:#f2f2f2;fill-opacity:1;stroke:#f2f2f2;stroke-width:3.17499994;stroke-linecap:round;stroke-linejoin:round;stroke-miterlimit:4;stroke-dasharray:none;stroke-dashoffset:0;stroke-opacity:1;paint-order:fill markers stroke"
         id="ellipse3921"
         cx="-115.2818"
         cy="-198.99768"
         rx="2.0579753"
         ry="1.9176589"
         inkscape:transform-center-x="-1.8348359"
         inkscape:transform-center-y="2.2475276" />
      <ellipse
         inkscape:transform-center-y="2.3540328"
         inkscape:transform-center-x="1.6960527"
         ry="1.9176589"
         rx="2.0579753"
         cy="56.466267"
         cx="-223.07086"
         id="ellipse3923"
         style="opacity:1;fill:#f2f2f2;fill-opacity:1;stroke:#f2f2f2;stroke-width:3.17499994;stroke-linecap:round;stroke-linejoin:round;stroke-miterlimit:4;stroke-dasharray:none;stroke-dashoffset:0;stroke-opacity:1;paint-order:fill markers stroke"
         transform="rotate(-75)" />
      <ellipse
         ry="1.9176589"
         rx="1.9644309"
         cy="227.63689"
         cx="-1.403165"
         id="ellipse3925"
         style="opacity:1;fill:#f2f2f2;fill-opacity:1;stroke:#f2f2f2;stroke-width:3.17499994;stroke-linecap:round;stroke-linejoin:round;stroke-miterlimit:4;stroke-dasharray:none;stroke-dashoffset:0;stroke-opacity:1;paint-order:fill markers stroke" />
    </g>
    <g
       id="g3941"
       transform="matrix(0.48296291,-0.12940952,0.12940952,0.48296291,17.758206,154.24332)"
       style="stroke-width:3.17499996;fill:#f2f2f2;stroke:#f2f2f2;stroke-miterlimit:4;stroke-dasharray:none">
      <ellipse
         inkscape:transform-center-y="-1.0289877"
         inkscape:transform-center-x="2.7127857"
         ry="1.9176589"
         rx="2.0579753"
         cy="226.70143"
         cx="-4.2094951"
         id="ellipse3929"
         style="opacity:1;fill:#f2f2f2;fill-opacity:1;stroke:#f2f2f2;stroke-width:3.17499996;stroke-linecap:round;stroke-linejoin:round;stroke-miterlimit:4;stroke-dasharray:none;stroke-dashoffset:0;stroke-opacity:1;paint-order:fill markers stroke" />
      <ellipse
         transform="rotate(75)"
         style="opacity:1;fill:#f2f2f2;fill-opacity:1;stroke:#f2f2f2;stroke-width:3.17499996;stroke-linecap:round;stroke-linejoin:round;stroke-miterlimit:4;stroke-dasharray:none;stroke-dashoffset:0;stroke-opacity:1;paint-order:fill markers stroke"
         id="ellipse3931"
         cx="216.87053"
         cy="59.357689"
         rx="2.0579753"
         ry="1.9176589"
         inkscape:transform-center-x="-0.29180798"
         inkscape:transform-center-y="-2.8866735" />
      <ellipse
         inkscape:transform-center-y="-1.1906199"
         inkscape:transform-center-x="-2.6458335"
         ry="1.9176589"
         rx="2.0579753"
         cy="-161.00038"
         cx="159.37527"
         id="ellipse3933"
         style="opacity:1;fill:#f2f2f2;fill-opacity:1;stroke:#f2f2f2;stroke-width:3.17499996;stroke-linecap:round;stroke-linejoin:round;stroke-miterlimit:4;stroke-dasharray:none;stroke-dashoffset:0;stroke-opacity:1;paint-order:fill markers stroke"
         transform="rotate(135)" />
      <ellipse
         transform="rotate(-150)"
         style="opacity:1;fill:#f2f2f2;fill-opacity:1;stroke:#f2f2f2;stroke-width:3.17499996;stroke-linecap:round;stroke-linejoin:round;stroke-miterlimit:4;stroke-dasharray:none;stroke-dashoffset:0;stroke-opacity:1;paint-order:fill markers stroke"
         id="ellipse3935"
         cx="-115.2818"
         cy="-198.99768"
         rx="2.0579753"
         ry="1.9176589"
         inkscape:transform-center-x="-1.8348359"
         inkscape:transform-center-y="2.2475276" />
      <ellipse
         inkscape:transform-center-y="2.3540328"
         inkscape:transform-center-x="1.6960527"
         ry="1.9176589"
         rx="2.0579753"
         cy="56.466267"
         cx="-223.07086"
         id="ellipse3937"
         style="opacity:1;fill:#f2f2f2;fill-opacity:1;stroke:#f2f2f2;stroke-width:3.17499996;stroke-linecap:round;stroke-linejoin:round;stroke-miterlimit:4;stroke-dasharray:none;stroke-dashoffset:0;stroke-opacity:1;paint-order:fill markers stroke"
         transform="rotate(-75)" />
      <ellipse
         ry="1.9176589"
         rx="1.9644309"
         cy="227.63689"
         cx="-1.403165"
         id="ellipse3939"
         style="opacity:1;fill:#f2f2f2;fill-opacity:1;stroke:#f2f2f2;stroke-width:3.17499996;stroke-linecap:round;stroke-linejoin:round;stroke-miterlimit:4;stroke-dasharray:none;stroke-dashoffset:0;stroke-opacity:1;paint-order:fill markers stroke" />
    </g>
    <g
       style="stroke-width:3.17499996;fill:#f2f2f2;stroke:#f2f2f2;stroke-miterlimit:4;stroke-dasharray:none"
       transform="matrix(0.48296291,-0.12940952,0.12940952,0.48296291,27.084768,147.09957)"
       id="g3955">
      <ellipse
         style="opacity:1;fill:#f2f2f2;fill-opacity:1;stroke:#f2f2f2;stroke-width:3.17499996;stroke-linecap:round;stroke-linejoin:round;stroke-miterlimit:4;stroke-dasharray:none;stroke-dashoffset:0;stroke-opacity:1;paint-order:fill markers stroke"
         id="ellipse3943"
         cx="-4.2094951"
         cy="226.70143"
         rx="2.0579753"
         ry="1.9176589"
         inkscape:transform-center-x="2.7127857"
         inkscape:transform-center-y="-1.0289877" />
      <ellipse
         inkscape:transform-center-y="-2.8866735"
         inkscape:transform-center-x="-0.29180798"
         ry="1.9176589"
         rx="2.0579753"
         cy="59.357689"
         cx="216.87053"
         id="ellipse3945"
         style="opacity:1;fill:#f2f2f2;fill-opacity:1;stroke:#f2f2f2;stroke-width:3.17499996;stroke-linecap:round;stroke-linejoin:round;stroke-miterlimit:4;stroke-dasharray:none;stroke-dashoffset:0;stroke-opacity:1;paint-order:fill markers stroke"
         transform="rotate(75)" />
      <ellipse
         transform="rotate(135)"
         style="opacity:1;fill:#f2f2f2;fill-opacity:1;stroke:#f2f2f2;stroke-width:3.17499996;stroke-linecap:round;stroke-linejoin:round;stroke-miterlimit:4;stroke-dasharray:none;stroke-dashoffset:0;stroke-opacity:1;paint-order:fill markers stroke"
         id="ellipse3947"
         cx="159.37527"
         cy="-161.00038"
         rx="2.0579753"
         ry="1.9176589"
         inkscape:transform-center-x="-2.6458335"
         inkscape:transform-center-y="-1.1906199" />
      <ellipse
         inkscape:transform-center-y="2.2475276"
         inkscape:transform-center-x="-1.8348359"
         ry="1.9176589"
         rx="2.0579753"
         cy="-198.99768"
         cx="-115.2818"
         id="ellipse3949"
         style="opacity:1;fill:#f2f2f2;fill-opacity:1;stroke:#f2f2f2;stroke-width:3.17499996;stroke-linecap:round;stroke-linejoin:round;stroke-miterlimit:4;stroke-dasharray:none;stroke-dashoffset:0;stroke-opacity:1;paint-order:fill markers stroke"
         transform="rotate(-150)" />
      <ellipse
         transform="rotate(-75)"
         style="opacity:1;fill:#f2f2f2;fill-opacity:1;stroke:#f2f2f2;stroke-width:3.17499996;stroke-linecap:round;stroke-linejoin:round;stroke-miterlimit:4;stroke-dasharray:none;stroke-dashoffset:0;stroke-opacity:1;paint-order:fill markers stroke"
         id="ellipse3951"
         cx="-223.07086"
         cy="56.466267"
         rx="2.0579753"
         ry="1.9176589"
         inkscape:transform-center-x="1.6960527"
         inkscape:transform-center-y="2.3540328" />
      <ellipse
         style="opacity:1;fill:#f2f2f2;fill-opacity:1;stroke:#f2f2f2;stroke-width:3.17499996;stroke-linecap:round;stroke-linejoin:round;stroke-miterlimit:4;stroke-dasharray:none;stroke-dashoffset:0;stroke-opacity:1;paint-order:fill markers stroke"
         id="ellipse3953"
         cx="-1.403165"
         cy="227.63689"
         rx="1.9644309"
         ry="1.9176589" />
    </g>
    <path
       style="color:#000000;font-style:normal;font-variant:normal;font-weight:normal;font-stretch:normal;font-size:medium;line-height:125%;font-family:Elegante;-inkscape-font-specification:Elegante;font-variant-ligatures:normal;font-variant-position:normal;font-variant-caps:normal;font-variant-numeric:normal;font-variant-alternates:normal;font-feature-settings:normal;text-indent:0;text-align:start;text-decoration:none;text-decoration-line:none;text-decoration-style:solid;text-decoration-color:#000000;letter-spacing:1.0274142px;word-spacing:0px;text-transform:none;writing-mode:lr-tb;direction:ltr;text-orientation:mixed;dominant-baseline:auto;baseline-shift:baseline;text-anchor:start;white-space:normal;shape-padding:0;clip-rule:nonzero;display:inline;overflow:visible;visibility:visible;opacity:1;isolation:auto;mix-blend-mode:normal;color-interpolation:sRGB;color-interpolation-filters:linearRGB;solid-color:#000000;solid-opacity:1;vector-effect:none;fill:#ffd5f6;fill-opacity:1;fill-rule:nonzero;stroke:#ffd5f6;stroke-width:1.05833331;stroke-linecap:round;stroke-linejoin:round;stroke-miterlimit:4;stroke-dasharray:none;stroke-dashoffset:0;stroke-opacity:1;color-rendering:auto;image-rendering:auto;shape-rendering:auto;text-rendering:auto;enable-background:accumulate"
       d="m 53.409143,251.08033 c -0.702731,0 -1.512091,0.51277 -2.568837,1.4521 a 0.26460974,0.26460974 0 0 0 -0.0016,0.002 c -0.75791,0.6832 -1.629955,1.60133 -2.621545,2.75642 a 0.26460974,0.26460974 0 0 0 -0.0026,0.003 l -1.571482,1.88515 c -0.220711,0.2543 -0.53979,0.52844 -0.957046,0.81339 -0.376071,0.24029 -0.748866,0.48003 -1.11983,0.72037 a 0.26460974,0.26460974 0 0 0 -0.08837,0.0951 l -0.04754,0.0868 a 0.26460974,0.26460974 0 0 0 0.03049,0.29818 l 0.08682,0.10231 a 0.26460974,0.26460974 0 0 0 0.143661,0.0868 c -0.14105,0.25733 -0.238229,0.51534 -0.238229,0.7736 0,0.21334 0.05489,0.41939 0.198954,0.56792 0.144071,0.14854 0.350933,0.20826 0.561723,0.20826 0.424675,0 0.967235,-0.23078 1.782321,-0.65164 0.431424,-0.22242 0.760415,-0.42169 0.996836,-0.61134 0.236424,-0.18964 0.415859,-0.36868 0.421683,-0.6413 a 0.26460974,0.26460974 0 0 0 -0.04754,-0.15709 l -0.05478,-0.0786 a 0.26460974,0.26460974 0 0 0 -0.217043,-0.11317 c -1.22e-4,0 -0.03697,0.002 -0.04857,0.005 -0.01161,0.002 -0.02001,0.004 -0.02687,0.006 -0.01373,0.004 -0.02192,0.007 -0.02842,0.01 -0.01301,0.005 -0.01928,0.009 -0.02532,0.0124 -0.01208,0.006 -0.02034,0.0111 -0.02946,0.0165 -0.01823,0.0109 -0.03863,0.0235 -0.0646,0.0403 -0.05193,0.0335 -0.124418,0.0816 -0.219623,0.14573 -0.190415,0.12814 -0.470358,0.3193 -0.840777,0.57412 a 0.26460974,0.26460974 0 0 0 -5.16e-4,5.2e-4 c -0.454649,0.31367 -0.801037,0.46193 -1.087273,0.54364 0.457044,-0.55238 0.915738,-1.1031 1.377177,-1.65107 a 0.26460974,0.26460974 0 0 0 5.16e-4,-10e-4 c 0.602292,-0.72171 1.129943,-1.28109 1.576133,-1.6769 0.153356,-0.12948 0.799039,-0.5447 1.850015,-1.16168 1.098116,-0.64409 1.903984,-1.17764 2.429309,-1.61541 0.809812,-0.67401 1.26814,-1.32621 1.26814,-1.99833 0,-0.21437 -0.08858,-0.42278 -0.236678,-0.57981 -0.146656,-0.16527 -0.359979,-0.26716 -0.579292,-0.26716 z m -24.650692,0.26768 c -0.440917,0 -0.918477,0.21693 -1.482079,0.60306 -0.563602,0.38614 -1.212257,0.95271 -1.956988,1.70274 a 0.26460974,0.26460974 0 0 0 -0.0052,0.005 c -0.982023,1.0447 -1.961954,2.08941 -2.938839,3.13418 -0.266957,0.21846 -0.437579,0.34198 -0.611332,0.4687 -0.08854,-0.0993 -0.201537,-0.19844 -0.343131,-0.19844 -0.249011,0 -0.478453,0.14147 -0.63407,0.34727 -0.134025,0.17724 -0.223384,0.42734 -0.305408,0.70538 -0.252469,0.15469 -0.562491,0.35552 -0.965832,0.63097 a 0.26460974,0.26460974 0 0 0 -0.0832,0.0925 l -0.04702,0.0868 a 0.26460974,0.26460974 0 0 0 0.03204,0.29869 l 0.09457,0.11007 a 0.26460974,0.26460974 0 0 0 0.207223,0.092 c -0.435309,0.69029 -0.92897,1.40584 -1.55081,2.17506 a 0.26460974,0.26460974 0 0 0 -0.04496,0.0822 c -0.220776,0.65594 -0.796114,1.21609 -1.412317,1.76475 -0.616202,0.54866 -1.272448,1.07616 -1.573547,1.77715 a 0.26460974,0.26460974 0 0 0 -0.0217,0.10439 c 2.05e-4,0.39605 0.343172,0.70331 0.736906,0.70331 a 0.26460974,0.26460974 0 0 0 5.17e-4,0 c 0.251585,-3.5e-4 0.488782,-0.12229 0.625801,-0.33383 a 0.26460974,0.26460974 0 0 0 0.0072,-0.0119 c 1.234808,-2.1547 3.264445,-4.12758 4.843115,-5.89318 0.155575,0.0615 0.310785,0.13591 0.469222,0.13591 0.504553,0 1.035951,-0.20787 1.60352,-0.58808 a 0.26460974,0.26460974 0 0 0 0.09302,-0.10955 l 0.03979,-0.0868 a 0.26460974,0.26460974 0 0 0 -0.02325,-0.26148 l -0.07131,-0.10232 a 0.26460974,0.26460974 0 0 0 -0.244946,-0.11162 c -0.0789,0.008 -0.09821,0.0234 -0.135909,0.0393 -0.0377,0.0159 -0.07913,0.0353 -0.128157,0.06 -0.09806,0.0492 -0.225698,0.11854 -0.387574,0.20877 l 0.0021,-0.002 c -0.256876,0.1397 -0.476485,0.19404 -0.67076,0.2005 0.566527,-0.69607 1.079364,-1.32054 1.416968,-1.71256 0.198433,-0.23041 0.357397,-0.4082 0.473873,-0.53071 0.116476,-0.12251 0.224038,-0.20047 0.182418,-0.17777 a 0.26460974,0.26460974 0 0 0 0.0047,-0.002 c 1.91104,-1.09202 2.966807,-1.70228 3.241661,-1.88153 a 0.26460974,0.26460974 0 0 0 0.0026,-0.002 c 0.767051,-0.51403 1.349119,-0.98723 1.75028,-1.43454 0.401161,-0.44731 0.634071,-0.8775 0.634071,-1.31258 0,-0.21504 -0.102097,-0.42708 -0.2682,-0.56431 -0.155514,-0.13306 -0.35284,-0.21187 -0.555006,-0.21187 z m 24.603665,0.46612 c 0.08893,0 0.110101,0.0187 0.112138,0.0207 0.002,0.002 0.01705,0.0125 0.01705,0.0925 -2e-6,0.16621 -0.129709,0.45957 -0.461989,0.82889 -0.332279,0.36932 -0.849029,0.81072 -1.545643,1.31052 -0.184652,0.13228 -1.04612,0.66986 -1.632974,1.04334 0.413142,-0.53218 0.999477,-1.3067 1.166855,-1.49603 a 0.26460974,0.26460974 0 0 0 10e-4,-0.002 c 0.54065,-0.62084 1.017061,-1.08112 1.416968,-1.37821 0.39991,-0.29709 0.720196,-0.42013 0.926558,-0.42013 z m -24.643456,0.28319 c 0.07441,0 0.07861,0.0121 0.08165,0.0155 0.003,0.003 0.02429,0.0333 0.02429,0.12971 0,0.12043 -0.123611,0.39258 -0.456303,0.74 -0.332692,0.34743 -0.850807,0.7704 -1.548225,1.25523 a 0.26460974,0.26460974 0 0 0 -5.19e-4,0 c -0.621265,0.43256 -1.179636,0.78194 -1.699637,1.08107 0.467191,-0.56887 1.044625,-1.29027 1.280542,-1.54151 a 0.26460974,0.26460974 0 0 0 0.001,-0.001 c 0.537888,-0.57926 1.009728,-1.00884 1.404565,-1.28622 0.394838,-0.27738 0.710327,-0.39274 0.912606,-0.39274 z m 8.989632,2.17919 a 0.26460974,0.26460974 0 0 0 -0.197403,0.0884 l -1.29553,1.45211 c -0.161962,-0.001 -0.320061,-0.003 -0.437181,0.016 -0.07628,0.0123 -0.144952,0.0287 -0.214974,0.0615 -0.07002,0.0328 -0.152599,0.0884 -0.198954,0.19275 a 0.26460974,0.26460974 0 0 0 0.08113,0.31781 l 0.110069,0.0842 c -0.656346,0.64902 -1.54637,1.37934 -2.798278,2.2257 a 0.26460974,0.26460974 0 0 0 -0.08837,0.10129 l -0.04703,0.0946 a 0.26460974,0.26460974 0 0 0 0.01395,0.26044 l 0.07079,0.11059 a 0.26460974,0.26460974 0 0 0 0.361736,0.0827 c 0.03107,-0.0192 0.05395,-0.0362 0.08475,-0.0553 -0.161896,0.28535 -0.27595,0.57178 -0.27595,0.86093 0,0.20879 0.05519,0.41209 0.198437,0.55759 0.143243,0.1455 0.346943,0.20309 0.554488,0.20309 0.417017,0 0.949729,-0.23367 1.774568,-0.6594 a 0.26460974,0.26460974 0 0 0 5.16e-4,0 c 0.43299,-0.22452 0.762344,-0.42179 0.998389,-0.60409 0.236045,-0.1823 0.421233,-0.3383 0.427882,-0.6165 a 0.26460974,0.26460974 0 0 0 -0.04186,-0.14883 l -0.0708,-0.11059 a 0.26460974,0.26460974 0 0 0 -0.389641,-0.0625 c -0.953114,0.77387 -1.642941,1.11761 -2.148189,1.2547 0.02143,-0.0264 0.02913,-0.038 0.05271,-0.0667 0.25948,-0.31499 0.649854,-0.76587 1.167371,-1.34876 l 0.0016,-0.002 c 0.60352,-0.6689 1.206715,-1.33771 1.810224,-2.0066 0.335031,0.006 0.628735,0.006 0.825791,-0.0114 0.113509,-0.0101 0.204444,-0.0228 0.29042,-0.0491 0.04299,-0.0131 0.08555,-0.0285 0.135393,-0.063 0.04984,-0.0346 0.117644,-0.10331 0.134876,-0.20671 a 0.26460974,0.26460974 0 0 0 -0.0677,-0.22427 l -0.102836,-0.11008 a 0.26460974,0.26460974 0 0 0 -0.19327,-0.0837 h -0.396359 l 0.986504,-1.09347 a 0.26460974,0.26460974 0 0 0 -0.196371,-0.44184 z m 11.759488,0.46509 c -0.341082,0.43915 -0.479557,0.59194 -0.98547,1.26246 a 0.26460974,0.26460974 0 0 0 -0.04341,0.22892 c -0.01621,0.0129 -0.09135,0.0548 -0.105421,0.0667 a 0.26460974,0.26460974 0 0 0 -0.0046,0.004 c -0.477072,0.42286 -1.019164,1.00071 -1.633492,1.73684 -0.504164,0.59871 -1.005912,1.20009 -1.504818,1.80403 l 0.0083,-0.009 c -0.08225,0.0905 -0.144187,0.19992 -0.211357,0.33899 -5.13e-4,-0.0111 -0.0052,-0.007 -0.0052,-0.0196 0,-0.19314 0.07726,-0.42251 0.260448,-0.69092 0.04473,-0.054 0.214484,-0.26441 0.562239,-0.69401 a 0.26460974,0.26460974 0 0 0 0.04393,-0.25373 c 0.0433,-0.0277 0.08581,-0.0555 0.12919,-0.0832 a 0.26460974,0.26460974 0 0 0 0.0067,-0.004 c 0.443513,-0.30288 0.796174,-0.60125 1.058333,-0.9033 a 0.26460974,0.26460974 0 0 0 0.0031,-0.004 l 1.571998,-1.88671 0.0026,-0.003 c 0.322828,-0.376 0.55069,-0.56644 0.846976,-0.89039 z m -11.641148,0.0641 h 0.207222 l -0.986505,1.09347 a 0.26460974,0.26460974 0 0 0 -0.06718,0.15968 0.26460974,0.26460974 0 0 0 -0.08268,0.061 c -0.62983,0.69806 -1.259456,1.39587 -1.889291,2.09393 a 0.26460974,0.26460974 0 0 0 -0.0016,0.002 c -0.520758,0.58651 -0.913693,1.04042 -1.181322,1.36529 -0.133813,0.16244 -0.235857,0.29249 -0.309541,0.39429 -0.03684,0.0509 -0.06673,0.0941 -0.09147,0.13591 -0.0038,0.006 -0.0061,0.019 -0.0098,0.0248 0.01017,-0.27902 0.1467,-0.60336 0.46922,-0.97824 l 0.94878,-0.94929 a 0.26460974,0.26460974 0 0 0 0.0083,-0.36484 c 0.611492,-0.48771 1.127882,-0.94826 1.505333,-1.36994 a 0.26460974,0.26460974 0 0 0 0.06563,-0.14315 0.26460974,0.26460974 0 0 0 0.124024,-0.0775 z m -13.799675,1.00045 c -0.07254,0.0908 -0.08423,0.0967 -0.160197,0.19224 a 0.26460974,0.26460974 0 0 0 -0.05064,0.22376 c -0.07212,0.0412 -0.05096,0.0302 -0.125574,0.0729 l 0.0047,-0.002 c -0.128222,0.0699 -0.18578,0.14355 -0.312642,0.27698 -0.126863,0.13344 -0.289757,0.31616 -0.491443,0.55036 -0.403372,0.46838 -0.961151,1.14283 -1.675867,2.02571 a 0.26460974,0.26460974 0 0 0 -0.05064,0.1018 0.26460974,0.26460974 0 0 0 -0.122989,0.0775 c -0.763993,0.86099 -1.662854,1.79046 -2.534213,2.77761 0.02909,-0.064 0.06505,-0.12392 0.0894,-0.19069 0.644055,-0.79829 1.159165,-1.54604 1.611272,-2.27014 a 0.26460974,0.26460974 0 0 0 0.358634,-0.0398 l 0.425297,-0.4961 a 0.26460974,0.26460974 0 0 0 0.05581,-0.11007 0.26460974,0.26460974 0 0 0 0.14366,-0.0806 l 0.637687,-0.70021 a 0.26460974,0.26460974 0 0 0 0.0093,-0.3452 c 0.218159,-0.14619 0.507262,-0.36748 0.883667,-0.67593 a 0.26460974,0.26460974 0 0 0 0.02532,-0.0238 c 0.425234,-0.45479 0.853183,-0.90945 1.279509,-1.36426 z m 7.558713,0.41548 a 0.26460974,0.26460974 0 0 0 -0.05323,0.008 c -0.06306,0.0166 -0.08408,0.0318 -0.119888,0.0512 -0.03581,0.0193 -0.07569,0.0426 -0.122989,0.0718 -0.09461,0.0584 -0.217903,0.13913 -0.373105,0.24391 -0.310407,0.20958 -0.747408,0.51507 -1.312582,0.91726 -0.564809,0.40193 -0.991098,0.70854 -1.280541,0.92139 -0.144722,0.10643 -0.255146,0.18914 -0.333314,0.25011 -0.03908,0.0305 -0.06991,0.0554 -0.0956,0.0775 -0.01285,0.0111 -0.02418,0.0212 -0.03721,0.0341 -0.01302,0.0129 -0.02504,0.0108 -0.06046,0.0817 a 0.26460974,0.26460974 0 0 0 0.02739,0.2806 l 0.09198,0.11886 c -0.110344,0.041 -0.210984,0.10199 -0.286805,0.19275 -0.142219,0.17024 -0.191204,0.39203 -0.191204,0.63613 0,0.2552 0.09608,0.5033 0.28939,0.6563 0.193308,0.15299 0.444363,0.2067 0.731221,0.2067 0.710296,0 1.451878,-0.38335 2.239656,-1.06867 0.212405,-0.0264 0.440293,-0.0817 0.744657,-0.2005 0.205594,-0.0779 0.367381,-0.15417 0.496093,-0.2465 0.129091,-0.0926 0.2558,-0.22206 0.2558,-0.41806 a 0.26460974,0.26460974 0 0 0 -0.06253,-0.17053 l -0.0863,-0.10232 a 0.26460974,0.26460974 0 0 0 -0.329694,-0.061 c -0.239893,0.13219 -0.306938,0.13988 -0.473358,0.21446 0.04066,-0.17066 0.07028,-0.34491 0.07028,-0.52607 0,-0.12235 -0.01843,-0.26808 -0.05013,-0.45423 -0.02533,-0.17729 -0.03669,-0.31019 -0.03669,-0.38034 0,-0.093 0.0075,-0.15058 0.01395,-0.21188 0.268563,-0.21661 0.500491,-0.40361 0.643372,-0.51883 a 0.26460974,0.26460974 0 0 0 0.03256,-0.38137 l -0.11834,-0.13384 a 0.26460974,0.26460974 0 0 0 -0.212389,-0.0889 z m 20.079392,0.85008 c -0.661423,0 -1.347096,0.31043 -2.062921,0.88418 a 0.26460974,0.26460974 0 0 0 -5.19e-4,5.2e-4 c -0.752078,0.60386 -1.177189,1.24419 -1.177189,1.92288 0,0.32227 0.121726,0.62115 0.361219,0.80564 0.239493,0.18448 0.557094,0.25373 0.934826,0.25373 0.356434,0 0.761516,-0.14984 1.273826,-0.41755 0.512307,-0.2677 1.126085,-0.66174 1.848982,-1.18339 a 0.26460974,0.26460974 0 0 0 0.09043,-0.11575 l 0.03152,-0.0786 a 0.26460974,0.26460974 0 0 0 -0.02067,-0.23875 l -0.07855,-0.12609 a 0.26460974,0.26460974 0 0 0 -0.224793,-0.12454 c -8.2e-5,0 -0.04939,0.004 -0.06201,0.007 -0.01262,0.003 -0.02053,0.006 -0.02687,0.008 -0.01269,0.004 -0.01904,0.007 -0.02429,0.01 -0.01049,0.005 -0.01538,0.008 -0.02015,0.0103 -0.0095,0.005 -0.0166,0.009 -0.02481,0.0139 -0.01641,0.01 -0.03634,0.0225 -0.06201,0.0388 -0.05135,0.0326 -0.124743,0.0804 -0.221692,0.14366 -0.193891,0.12651 -0.481176,0.3153 -0.861962,0.56741 a 0.26460974,0.26460974 0 0 0 -5.16e-4,5.1e-4 c -0.733493,0.489 -1.325366,0.71159 -1.734777,0.71159 -0.08291,0 -0.108892,-0.0194 -0.10077,-0.0129 0.0081,0.006 0.01085,0.0336 0.01085,-0.006 0,-0.25964 0.15644,-0.48668 0.611849,-0.72451 0.461531,-0.20218 0.923364,-0.40186 1.38493,-0.59893 a 0.26460974,0.26460974 0 0 0 0.01033,-0.005 c 0.272169,-0.13041 0.489294,-0.27519 0.648539,-0.45113 0.159245,-0.17595 0.25735,-0.39425 0.25735,-0.62219 0,-0.18975 -0.07024,-0.38767 -0.219626,-0.51108 -0.149389,-0.12341 -0.338836,-0.16278 -0.540536,-0.16278 z m -34.140551,0.0155 c -0.701152,0 -1.438295,0.28107 -2.212268,0.80977 a 0.26460974,0.26460974 0 0 0 -0.0015,0.001 c -0.839856,0.58186 -1.318266,1.23657 -1.318266,1.9575 0,0.32176 0.09011,0.61268 0.298173,0.81132 0.208065,0.19864 0.501717,0.28009 0.832508,0.28009 0.734304,0 1.544542,-0.47471 2.485119,-1.31724 0.540398,-0.0125 0.997736,-0.11143 1.345138,-0.34106 a 0.26460974,0.26460974 0 0 0 0.08578,-0.093 l 0.04754,-0.0863 a 0.26460974,0.26460974 0 0 0 -0.02222,-0.28938 l -0.07906,-0.10232 A 0.26460974,0.26460974 0 0 0 18.74976,258.6163 c -0.116143,0.0116 -0.265741,0.0645 -0.419096,0.11679 0.1553,-0.26853 0.261483,-0.52904 0.261483,-0.7829 0,-0.27459 -0.160553,-0.53041 -0.399459,-0.68058 a 0.26460974,0.26460974 0 0 0 -0.001,-10e-4 c -0.196345,-0.12187 -0.426024,-0.18139 -0.667143,-0.18139 z m 22.149037,0 c -0.205687,0 -0.384323,0.084 -0.613918,0.21291 -0.229595,0.12892 -0.500287,0.31376 -0.821137,0.55707 -0.323038,0.24038 -0.571077,0.44734 -0.749826,0.63046 -0.179147,0.18352 -0.311463,0.32788 -0.330211,0.55913 a 0.26460974,0.26460974 0 0 0 0.102317,0.231 l 0.10232,0.0786 a 0.26460974,0.26460974 0 0 0 0.198437,0.0522 c 0.06914,-0.01 0.08365,-0.0251 0.100769,-0.0346 0.01713,-0.009 0.02853,-0.0174 0.03979,-0.0253 0.02252,-0.0158 0.04302,-0.0318 0.06718,-0.0517 0.04832,-0.0397 0.109432,-0.0931 0.186553,-0.16278 0.07954,-0.0719 0.224663,-0.21012 0.338481,-0.31678 -0.353084,0.41713 -0.601514,0.79631 -0.601514,1.16375 0,0.23653 0.09539,0.46423 0.257865,0.64131 0.162238,0.18229 0.394886,0.29249 0.636654,0.29249 0.318185,0 0.671679,-0.10428 1.063501,-0.28526 l -0.325046,0.38189 c -1.354921,0.50769 -2.21139,0.84444 -2.550748,1.01699 -0.598471,0.2994 -1.058624,0.6062 -1.381312,0.93897 -0.323014,0.3331 -0.511596,0.70698 -0.511596,1.09967 0,0.2375 0.06769,0.46487 0.230994,0.62167 0.163309,0.1568 0.390219,0.21755 0.632003,0.21755 0.610335,0 1.254955,-0.27184 1.943549,-0.77462 a 0.26460974,0.26460974 0 0 0 10e-4,-10e-4 c 0.420471,-0.30982 0.977707,-0.81647 1.690852,-1.52962 a 0.26460974,0.26460974 0 0 0 5.18e-4,-5.2e-4 c 0.666134,-0.67134 1.137693,-1.09689 1.359091,-1.24798 0.0036,-0.002 0.0066,-0.003 0.01188,-0.006 0.01806,-0.01 0.04508,-0.024 0.08061,-0.0429 0.07107,-0.0378 0.176255,-0.0935 0.315227,-0.16691 0.277945,-0.14691 0.690801,-0.36508 1.2392,-0.65371 a 0.26460974,0.26460974 0 0 0 5.19e-4,0 c 0.804687,-0.4238 1.347684,-0.81121 1.637625,-1.23352 a 0.26460974,0.26460974 0 0 0 0.03514,-0.0734 l 0.02377,-0.0785 a 0.26460974,0.26460974 0 0 0 -0.03617,-0.22789 l -0.05529,-0.0791 a 0.26460974,0.26460974 0 0 0 -0.242361,-0.11214 l -0.08682,0.008 a 0.26460974,0.26460974 0 0 0 -0.132807,0.0517 c -0.293746,0.21897 -0.506524,0.39231 -0.650606,0.5364 l 0.02377,-0.0212 c -0.30593,0.24023 -0.591535,0.42548 -0.873848,0.60306 l 2.046902,-2.33009 a 0.26460974,0.26460974 0 0 0 -0.198954,-0.43925 h -0.889868 a 0.26460974,0.26460974 0 0 0 -0.187587,0.078 c -1.011586,1.0194 -1.876221,1.78022 -2.582785,2.27893 -0.543838,0.38385 -0.958326,0.56023 -1.289328,0.6413 0.131747,-0.16237 0.304834,-0.36326 0.553971,-0.63355 a 0.26460974,0.26460974 0 0 0 10e-4,-10e-4 c 0.570627,-0.62446 0.903819,-1.07132 0.903819,-1.5322 0,-0.22394 -0.04133,-0.42789 -0.169497,-0.58963 -0.128164,-0.16174 -0.338855,-0.24185 -0.544153,-0.24185 z m -17.855758,0.19586 0.01189,0.0165 c -0.0017,-0.003 -0.0065,-0.002 -0.0083,-0.005 -0.0024,-0.003 -0.0011,-0.009 -0.0036,-0.0119 z m -0.41858,0.32349 a 0.26460974,0.26460974 0 0 0 0.0021,0.003 c 0.02838,0.0361 0.01484,0.0265 0.01757,0.009 a 0.26460974,0.26460974 0 0 0 0.05374,0.2036 c -0.129069,0.0629 -0.256826,0.12695 -0.381889,0.19431 a 0.26460974,0.26460974 0 0 0 -0.0021,10e-4 c 0.04116,-0.0923 0.07968,-0.23467 0.119889,-0.28784 0.07945,-0.10506 0.1297,-0.11858 0.190686,-0.12299 z m 21.694284,0.01 h 0.199469 l -2.574001,2.93057 a 0.26460974,0.26460974 0 0 0 -0.0553,0.24701 c -0.02247,0.0119 -0.06191,0.0327 -0.0801,0.0424 -0.03599,0.0192 -0.06353,0.0338 -0.0832,0.0444 -0.0098,0.005 -0.01728,0.009 -0.02377,0.0129 -0.0065,0.004 0.0034,-0.004 -0.02842,0.017 a 0.26460974,0.26460974 0 0 0 -0.0021,0.002 c -0.304197,0.20686 -0.764431,0.63409 -1.440222,1.31517 -0.02059,0.0206 -0.02722,0.0232 -0.04754,0.0434 0.164457,-0.20179 0.265007,-0.3253 0.471805,-0.5793 a 0.26460974,0.26460974 0 0 0 0.05891,-0.17518 c 0.04751,-0.0178 0.03957,-0.0169 0.08837,-0.0351 a 0.26460974,0.26460974 0 0 0 0.109037,-0.0765 l 1.432989,-1.68517 a 0.26460974,0.26460974 0 0 0 0.01033,-0.32918 c 0.588738,-0.47159 1.228601,-1.03781 1.963706,-1.77405 z m -25.458912,0.22841 c 0.116714,0 0.163765,0.0263 0.175183,0.0362 0.01142,0.01 0.02481,0.018 0.02481,0.10077 0,0.29447 -0.322535,0.79296 -1.100708,1.38803 a 0.26460974,0.26460974 0 0 0 -5.17e-4,5.2e-4 c -0.7452,0.57166 -1.335669,0.82682 -1.704805,0.82682 -0.07602,0 -0.09446,-0.0179 -0.08423,-0.009 0.01023,0.009 0.01033,0.0325 0.01033,-0.009 0,-0.0885 0.0636,-0.27078 0.243913,-0.50953 0.180316,-0.23875 0.465795,-0.53104 0.853178,-0.86455 0.776821,-0.66879 1.364297,-0.95963 1.582849,-0.95963 z m 22.216216,0.0393 c 0.0011,0.0179 0.0072,0.0142 0.0072,0.0346 0,0.12695 -0.223252,0.58242 -0.765328,1.17564 -0.280017,0.30383 -0.491771,0.54553 -0.638204,0.7307 -0.07332,0.0927 -0.130247,0.17058 -0.174149,0.24185 -0.005,0.008 -0.0054,0.022 -0.01033,0.0294 -0.01181,-0.0376 -0.04806,-0.0713 -0.04806,-0.11524 0,-0.17917 0.226115,-0.62035 0.774628,-1.18442 l 10e-4,-0.001 c 0.294486,-0.29977 0.51698,-0.53207 0.66921,-0.69919 0.07623,-0.0837 0.134578,-0.15026 0.1788,-0.20567 0.0019,-0.002 0.0033,-0.004 0.0052,-0.007 z m 10.792621,0.0398 c -0.223584,0.20463 -0.445492,0.40645 -0.696598,0.71933 a 0.26460974,0.26460974 0 0 0 -0.02636,0.29094 c -0.0076,0.003 -0.01516,0.007 -0.02274,0.01 a 0.26460974,0.26460974 0 0 0 -0.01654,0.008 c -0.508402,0.2648 -0.81349,0.64661 -0.861446,1.09296 -0.01872,-0.056 -0.06615,-0.0765 -0.06615,-0.16537 0,-0.455 0.293743,-0.95966 0.979787,-1.5105 0.251976,-0.20191 0.481732,-0.32464 0.710033,-0.44493 z m -19.909377,0.032 c 0.0029,0.0218 0.0019,0.0322 0.0052,0.0553 a 0.26460974,0.26460974 0 0 0 10e-4,0.008 c 0.03027,0.17657 0.04393,0.30756 0.04393,0.37207 0,0.32781 -0.08054,0.6163 -0.244946,0.88573 a 0.26460974,0.26460974 0 0 0 -0.03824,0.13643 0.26460974,0.26460974 0 0 0 -0.100253,0.0553 c -0.242261,0.21462 -0.45524,0.33143 -0.675929,0.47284 0.02451,-0.0301 0.05458,-0.0422 0.07855,-0.0739 0.345829,-0.45681 0.64734,-1.12012 0.930693,-1.91152 z m -14.483355,0.0367 c -0.179942,0.13658 -0.337787,0.23317 -0.544152,0.41083 -0.405156,0.34881 -0.714089,0.66009 -0.930176,0.9462 -0.07686,0.10177 -0.12855,0.19884 -0.182418,0.29662 0.08028,-0.42225 0.359661,-0.85627 1.016992,-1.31206 l 0.001,-5.2e-4 c 2.45e-4,-1.7e-4 2.71e-4,-3.5e-4 5.16e-4,-5.2e-4 0.225003,-0.15359 0.428664,-0.23747 0.638204,-0.34055 z m 13.862719,0.10749 c -0.236424,0.59914 -0.480152,1.11497 -0.732253,1.44798 -0.208595,0.27553 -0.4108,0.43313 -0.612367,0.53536 0.03729,-0.0963 0.05685,-0.20122 0.05685,-0.30644 0,-0.14855 -0.05468,-0.31376 -0.177252,-0.41909 -0.06983,-0.06 -0.159276,-0.0581 -0.242877,-0.078 0.976593,-0.67279 1.336601,-0.92249 1.707904,-1.17978 z m -1.891355,1.65003 c 0.07484,0 0.09114,0.0169 0.08165,0.009 -0.0095,-0.008 -0.0072,-0.0276 -0.0072,0.0181 0,0.11346 -0.02144,0.14062 -0.04961,0.16382 -0.02723,0.0224 -0.106338,0.0519 -0.252698,0.0501 0.01372,-0.0676 0.02258,-0.15789 0.04134,-0.18035 0.03086,-0.0369 0.06606,-0.0605 0.186553,-0.0605 z m 10.139947,2.41484 c -0.138949,0.1704 -0.342474,0.42053 -0.4439,0.54467 -0.248237,0.30382 -0.401534,0.48757 -0.396875,0.48266 -0.669149,0.68321 -1.268708,0.98857 -1.79162,0.98857 -0.08015,0 -0.09383,-0.0163 -0.0925,-0.015 0.0013,0.001 -0.01292,-0.007 -0.01292,-0.0827 0,-0.18517 0.08661,-0.3876 0.316775,-0.62477 0.230161,-0.23717 0.599734,-0.49401 1.105877,-0.75344 h -0.001 c 0.175056,-0.0889 0.834747,-0.34489 1.316199,-0.54002 z m -21.240046,1.62161 c -0.399344,0.53062 -0.772287,1.07587 -1.094507,1.63814 l 0.0072,-0.0119 c -0.03353,0.0518 -0.102639,0.0917 -0.181901,0.092 -0.107195,0 -0.153137,-0.0742 -0.17415,-0.14573 0.246374,-0.49575 0.790146,-0.9855 1.384412,-1.51464 0.0202,-0.018 0.03865,-0.0398 0.05891,-0.0579 z"
       id="path2636"
       inkscape:connector-curvature="0" />
    <path
       inkscape:connector-curvature="0"
       id="path2364"
       style="font-style:normal;font-variant:normal;font-weight:normal;font-stretch:normal;font-size:medium;line-height:125%;font-family:Elegante;-inkscape-font-specification:Elegante;letter-spacing:1.0274142px;word-spacing:0px;fill:#ff00cc;fill-opacity:1;stroke:#ff00cc;stroke-width:0.52916652;stroke-linecap:round;stroke-linejoin:round;stroke-miterlimit:4;stroke-dasharray:none;stroke-opacity:1"
       d="m 18.776288,258.8792 0.07873,0.10235 -0.04724,0.0866 q -0.464501,0.30704 -1.299029,0.30704 -1.432868,1.30691 -2.38549,1.30691 -0.866019,0 -0.866019,-0.82666 0,-0.90538 1.204554,-1.73991 1.117953,-0.76367 2.062701,-0.76367 0.29917,0 0.527485,0.14171 0.275551,0.1732 0.275551,0.45663 0,0.48025 -0.59834,1.18881 0.220441,0.008 0.551103,-0.1181 0.338535,-0.12596 0.495993,-0.14171 z m -3.747502,1.58245 q 0.716434,0 1.865878,-0.88176 1.204554,-0.92113 1.204554,-1.5982 0,-0.40152 -0.464501,-0.40152 -0.566849,0 -1.755658,1.02348 -1.188808,1.02348 -1.188808,1.57458 0,0.28342 0.338535,0.28342 z" />
    <path
       style="font-style:normal;font-variant:normal;font-weight:normal;font-stretch:normal;font-size:medium;line-height:125%;font-family:Elegante;-inkscape-font-specification:Elegante;letter-spacing:1.0274142px;word-spacing:0px;fill:#ff00cc;fill-opacity:1;stroke:#ff00cc;stroke-width:0.52916652;stroke-linecap:round;stroke-linejoin:round;stroke-miterlimit:4;stroke-dasharray:none;stroke-opacity:1"
       d="m 28.758451,251.61261 c -0.692817,0 -1.776624,0.74241 -3.251481,2.22777 -0.986737,1.04972 -1.971303,2.09944 -2.952791,3.14916 -0.3779,0.30967 -0.669153,0.53275 -0.873849,0.66921 0.01049,-0.0682 -0.01306,-0.13891 -0.0708,-0.21239 -0.05249,-0.0787 -0.115139,-0.11834 -0.188618,-0.11834 -0.320166,0 -0.564301,0.32283 -0.732256,0.96842 -0.251933,0.1522 -0.593324,0.37529 -1.02371,0.66921 l -0.04703,0.0868 0.09457,0.11007 c 0.325413,-0.1942 0.593107,-0.37015 0.803051,-0.52761 -0.519612,0.96574 -1.233463,2.01045 -2.141471,3.13366 -0.498876,1.48219 -2.468385,2.33926 -2.993616,3.56205 1.25e-4,0.24222 0.21162,0.43851 0.47247,0.43851 0.165536,-2.3e-4 0.31887,-0.0809 0.404184,-0.21261 1.288948,-2.24918 3.402374,-4.27487 4.98242,-6.05552 0.194198,0.11022 0.380686,0.16537 0.559139,0.16537 0.430385,0 0.915636,-0.18097 1.456242,-0.54312 l 0.03979,-0.0868 -0.07131,-0.10232 c -0.04724,0.005 -0.230707,0.0975 -0.550871,0.27596 -0.29917,0.1627 -0.577394,0.24391 -0.834575,0.24391 -0.136464,0 -0.275317,-0.0471 -0.417028,-0.1416 1.427619,-1.76352 2.227682,-2.69294 2.400886,-2.78742 1.910492,-1.09171 2.98679,-1.71581 3.228228,-1.87327 1.511596,-1.01298 2.267045,-1.85568 2.267045,-2.5275 0,-0.14696 -0.05765,-0.26778 -0.173117,-0.36225 -0.115469,-0.0997 -0.243795,-0.14934 -0.385506,-0.14934 z m -0.03979,0.22014 c 0.246685,0 0.37052,0.13687 0.37052,0.40979 0,0.49338 -0.706342,1.23078 -2.118217,2.21227 -1.123201,0.78204 -2.088696,1.35152 -2.896981,1.70842 1.01823,-1.28066 1.729578,-2.13638 2.13372,-2.56677 1.09171,-1.17568 1.928364,-1.76371 2.510958,-1.76371 z m -7.085355,6.20427 -0.637687,0.70022 -0.03152,-0.12558 c 0,-0.13646 0.08423,-0.25728 0.252181,-0.36225 0.136464,-0.0735 0.275316,-0.14416 0.417029,-0.21239 z m -0.913123,0.68471 0.0708,0.21239 -0.425297,0.4961 z"
       id="path2366"
       inkscape:connector-curvature="0"
       sodipodi:nodetypes="sccccsccccccccccsccccscccscssscccsccccccccc" />
    <path
       inkscape:connector-curvature="0"
       id="path2368"
       style="font-style:normal;font-variant:normal;font-weight:normal;font-stretch:normal;font-size:medium;line-height:125%;font-family:Elegante;-inkscape-font-specification:Elegante;letter-spacing:1.0274142px;word-spacing:0px;fill:#ff00cc;fill-opacity:1;stroke:#ff00cc;stroke-width:0.52916652;stroke-linecap:round;stroke-linejoin:round;stroke-miterlimit:4;stroke-dasharray:none;stroke-opacity:1"
       d="m 30.765244,259.41456 q 0.307044,-0.0551 1.078588,-0.48025 l 0.0866,0.10235 q 0,0.19682 -0.582595,0.41726 -0.503866,0.19683 -0.771544,0.21257 -1.173063,1.03922 -2.117811,1.03922 -0.755799,0 -0.755799,-0.59834 0,-0.62196 0.519611,-0.62196 0.338535,0 0.338535,0.2913 0,0.496 -0.582595,0.48025 0.01575,0.22044 0.354281,0.22044 1.35414,0 2.33038,-3.0783 -0.267679,0.18895 -2.51933,1.73991 l -0.11022,-0.14172 q 0.03149,-0.063 1.724166,-1.26753 1.692674,-1.20456 1.842259,-1.24392 l 0.118094,0.13384 q -0.24406,0.19682 -0.73218,0.59047 -0.02362,0.13384 -0.02362,0.3464 0,0.14172 0.03937,0.41727 0.04724,0.27555 0.04724,0.41726 0,0.55898 -0.283425,1.02348 z" />
    <path
       style="font-style:normal;font-variant:normal;font-weight:normal;font-stretch:normal;font-size:medium;line-height:125%;font-family:'Fatboy Slim BLTC 2 BRK';-inkscape-font-specification:'Fatboy Slim BLTC 2 BRK';letter-spacing:1.45936847px;word-spacing:0px;fill:#ffd5d5;fill-opacity:1;stroke:#ffaaaa;stroke-width:5.99999996;stroke-linecap:round;stroke-linejoin:round;stroke-miterlimit:4;stroke-dasharray:none;stroke-opacity:1"
       d="M 88.599609 38.427734 C 87.105961 38.427979 85.692047 38.764543 84.462891 39.904297 C 81.124744 41.503406 79.828517 44.86617 78.496094 48.074219 C 78.144977 47.736904 77.760694 47.382501 77.429688 47.035156 C 75.272858 44.259509 70.011595 46.351128 66.761719 45.183594 C 62.290957 46.775304 57.496567 45.171124 53.160156 47.265625 C 48.689796 47.248859 44.09787 49.290037 41.400391 52.832031 C 41.469219 52.8658 41.454837 52.895783 41.351562 52.898438 C 41.316051 52.945723 41.280926 52.993201 41.246094 53.041016 C 41.216822 52.977116 41.203343 52.928318 41.203125 52.892578 C 41.198219 52.891576 41.200382 52.893648 41.195312 52.892578 C 41.1922 52.966985 41.202838 53.028472 41.203125 53.099609 C 41.154191 53.167633 41.100276 53.231705 41.052734 53.300781 L 41.203125 53.103516 C 41.221255 56.785604 45.717014 56.124739 47.613281 54.574219 C 49.590439 53.900631 52.057214 51.959415 54.146484 52.373047 C 61.459122 49.168537 69.637346 49.752333 77.425781 49.763672 C 77.559925 49.778629 77.630616 49.773118 77.75 49.783203 C 77.579465 50.155723 77.408868 50.530259 77.222656 50.884766 C 75.220019 55.456334 77.290111 60.632418 76.443359 65.472656 C 75.515267 67.630188 76.018283 72.64968 78.470703 74.519531 C 81.072496 75.351141 79.938478 74.120215 81.457031 73.802734 C 83.258513 74.902804 83.699436 71.223272 85.177734 71.8125 C 88.458546 71.538749 91.579249 71.814079 94.824219 72.634766 C 97.070664 70.882728 99.192678 71.319456 101.90625 71.119141 C 104.49915 69.809403 108.00161 68.605756 110.98438 69.304688 C 111.34803 70.637905 111.97077 71.84836 113.00977 72.429688 C 115.37789 75.914034 119.60291 73.563931 122.58789 74.46875 C 126.39307 73.940637 130.19425 74.512032 133.87695 73.435547 C 135.74947 72.077638 141.58309 71.329012 140.55273 68.554688 C 141.93609 65.824281 138.19264 67.062847 137.1875 66.898438 C 137.01419 67.054834 137.42405 66.934349 136.55859 66.330078 C 134.4697 67.090028 131.95924 69.728876 130.18164 68.632812 C 126.25829 68.612025 122.75134 70.569895 119.01758 69.496094 C 118.76027 70.015363 115.43166 66.730323 117.58594 65.691406 C 116.9667 63.346172 119.25948 64.16235 120.31055 62.632812 C 122.33963 63.483924 126.10077 60.799193 129.25977 60.263672 C 131.3396 58.692182 135.71646 61.493737 135.5957 58.757812 C 137.56853 58.501372 135.70674 55.570264 134.28711 56.712891 C 135.41422 58.383593 130.80352 56.189225 129.06445 57.783203 C 125.3931 55.777105 121.0774 59.999528 117.46094 58.101562 C 117.00453 59.177518 114.87192 58.439243 114.78125 56.595703 C 112.9582 57.679256 113.6998 55.18425 112.45117 56.587891 C 112.07474 56.838812 111.92367 57.597344 110.58008 59.304688 C 111.06234 59.027352 111.91862 63.402854 110.77344 64.142578 L 110.60156 63.931641 C 110.54389 64.216983 110.49291 65.120079 110.54297 66.224609 C 106.26024 65.945995 101.96488 65.687966 97.683594 65.931641 C 95.44117 65.406248 90.123567 68.535238 90.65625 65.835938 C 91.384879 61.866224 95.99856 60.148685 98.478516 56.855469 C 102.7451 54.798801 102.88 50.229934 102.29883 46.199219 C 104.33134 42.542261 99.831386 38.629883 96.224609 39.064453 C 93.796764 39.361264 91.089024 38.427327 88.599609 38.427734 z M 110.58008 59.304688 C 110.54523 59.324726 110.51247 59.363734 110.48242 59.435547 C 110.52313 59.384804 110.54142 59.353816 110.58008 59.304688 z M 41.203125 52.892578 C 41.296493 52.911642 41.310096 52.899503 41.351562 52.898438 C 41.368067 52.876461 41.383741 52.853893 41.400391 52.832031 C 41.320104 52.792641 41.202422 52.777123 41.203125 52.892578 z M 172.08008 38.986328 C 171.74363 38.99008 171.30858 39.14471 170.72266 39.511719 C 167.07663 39.435146 162.70636 38.126656 159.56445 41.289062 C 156.53028 41.599966 150.44007 41.466235 150.6543 45.896484 L 150.51758 46.240234 L 149.91406 45.660156 L 149.64648 45.423828 C 150.16965 50.112521 154.5737 48.15265 157.62695 47.572266 C 161.17101 46.959037 164.21934 44.384721 167.87305 43.480469 C 169.5571 44.456267 173.03193 45.108358 174.16797 43.726562 C 173.81386 42.877076 176.72859 43.672575 175.17578 42.111328 C 173.14595 41.759284 173.53803 38.970069 172.08008 38.986328 z M 135.54688 39.482422 C 132.64201 39.457915 129.61123 40.922792 126.54688 40.775391 C 122.91512 41.245073 118.11194 42.427464 116.77148 45.796875 L 116.94141 46.451172 C 116.92108 45.811388 118.59816 45.660414 117.4043 46.75 C 118.07374 48.950025 124.05704 48.188385 126.23633 46.271484 C 128.93803 44.888366 133.61655 43.261117 136.04883 44.613281 C 136.55401 43.647725 140.3191 45.588386 140.5918 44.078125 C 143.29814 44.66176 139.9482 43.036606 141.87695 43.371094 C 143.25097 41.294546 140.29124 38.985469 137.53711 39.775391 C 136.88115 39.572983 136.21723 39.488077 135.54688 39.482422 z M 116.94141 46.451172 C 116.94332 46.5115 116.95617 46.574173 116.99219 46.642578 L 116.94141 46.451172 z M 236.06836 40.916016 C 235.83316 40.903787 235.58183 40.917579 235.31445 40.960938 C 231.18518 43.336484 226.05116 43.673707 223.13672 47.966797 C 219.57406 51.042841 214.94654 53.260114 212.46875 57.501953 C 212.21824 61.584485 213.3112 65.671218 216.65625 68.462891 C 220.06379 72.650456 225.96301 72.48309 229.95898 75.882812 C 233.36001 77.118907 237.73071 81.422218 236.24023 84.572266 C 235.09766 83.279743 232.2958 83.299134 229.59766 83.25 C 225.7311 81.491991 221.84588 79.899466 217.60938 79.474609 L 217.25391 79.257812 C 217.4013 80.054493 217.60614 81.345102 218.21875 81.636719 C 219.50494 84.922678 221.06915 88.773865 224.91797 89.568359 C 228.32259 90.677726 231.53181 93.382995 235.27734 92.949219 C 239.21978 94.225338 242.7046 91.045977 244.84766 88.226562 C 246.86373 83.269977 243.85541 79.075964 241.75 74.841797 C 239.57702 70.361469 233.9982 70.155291 230.54688 67.212891 C 227.78644 64.72033 222.11962 63.873833 221.36719 60.566406 C 220.21112 59.391805 226.31505 58.084512 228.35352 56.544922 C 232.27385 55.096796 236.0162 53.035672 238.68164 49.898438 C 239.59296 47.22317 239.59636 41.099441 236.06836 40.916016 z M 217.25391 79.257812 C 217.13968 78.640423 217.05991 78.310821 216.85938 79.019531 L 217.25391 79.257812 z M 34.949219 42.095703 C 33.442286 42.106711 31.338179 42.787874 29.818359 42.833984 C 24.858356 43.29777 20.97683 46.274777 17.15625 49.162109 C 14.085216 51.860805 10.330983 54.399754 8.8027344 58.298828 C 4.976979 61.87891 7.6360634 67.907269 11.275391 70.496094 C 14.384736 74.019369 18.982997 74.211766 23.009766 76.064453 C 27.27344 77.791168 32.143964 80.785483 32.814453 85.712891 C 33.323985 90.592866 27.041324 85.796084 23.763672 85.609375 C 20.349804 83.95999 17.415283 81.27658 13.462891 82.160156 C 13.820351 83.751902 15.258625 88.221564 16.490234 90.193359 C 19.536445 93.305309 23.752141 95.929929 28.310547 96.205078 C 31.892881 96.697059 36.444017 98.738079 39.072266 95.269531 C 43.210656 94.077922 43.526156 89.86251 42.783203 86.25 C 43.416599 81.598233 39.628397 78.549945 36.261719 76.125 C 33.831025 71.786329 30.172726 69.52693 25.414062 68.404297 C 23.091338 66.131866 17.047877 64.913331 17.697266 61.402344 C 17.899266 61.377436 18.207588 61.247508 18.669922 60.9375 C 22.716496 58.782754 26.249265 55.246805 30.882812 54.607422 C 34.605439 52.742981 36.85816 49.733956 36.498047 45.382812 C 37.365246 42.744362 36.456151 42.084695 34.949219 42.095703 z M 13.462891 82.160156 C 13.39528 81.859091 13.353377 81.625944 13.373047 81.570312 L 13.263672 81.291016 L 13.324219 82.185547 C 13.37115 82.174116 13.416246 82.170584 13.462891 82.160156 z M 91.507812 42.800781 C 91.700969 42.803192 91.895887 42.818918 92.089844 42.841797 C 92.274064 43.219918 92.509775 43.725298 93.318359 43.791016 C 95.246735 43.111116 97.434441 43.778481 98.392578 46.462891 C 98.532847 46.860438 98.654777 47.123683 98.763672 47.314453 C 98.695111 47.437506 98.61891 47.603103 98.537109 47.800781 C 98.618053 47.911381 98.816512 48.015261 99.300781 48.027344 C 98.609774 48.413914 97.740206 51.26565 98.582031 51.931641 C 95.956027 54.393549 94.050506 57.433458 90.949219 59.580078 C 89.594821 58.538327 86.473546 64.36872 85.458984 62.009766 C 84.448271 62.599372 85.223416 62.024043 83.125 62.228516 C 83.603828 57.527879 83.72293 52.531877 83.371094 47.982422 C 85.216508 45.472201 88.289829 42.760624 91.507812 42.800781 z M 98.537109 47.800781 C 98.537109 47.800781 98.535156 47.798828 98.535156 47.798828 C 98.51098 47.856603 98.49468 47.905984 98.449219 47.988281 C 98.482777 47.899571 98.505537 47.877079 98.537109 47.800781 z M 98.535156 47.798828 C 98.722847 47.350291 98.375491 47.575507 98.535156 47.798828 z M 205.04883 44.566406 C 203.13387 44.514239 201.1597 44.722149 199.14648 44.707031 C 195.2768 45.184197 191.3346 45.522923 187.69727 47.132812 C 183.44837 47.847748 178.38712 48.791495 176.56445 53.259766 L 175.58984 53.429688 C 173.90391 55.493725 177.83772 54.181904 178.91016 55.177734 C 179.34941 55.58256 179.92715 56.676666 181.86133 55.755859 C 184.10807 52.285799 188.31087 51.618209 192.04688 50.421875 C 198.09641 49.716351 204.21783 49.940692 210.30273 49.826172 C 214.58766 51.577907 213.81823 46.037225 210.5918 45.982422 C 208.8186 44.931033 206.96379 44.618573 205.04883 44.566406 z M 164.23633 56.3125 C 162.54306 56.276372 160.63094 56.652319 159.63086 58.089844 C 155.50213 57.699796 151.81689 61.094457 148.1543 57.96875 C 148.06896 55.714904 143.81557 57.207594 146.16992 56.71875 C 144.30511 57.544085 144.52488 57.908109 143.06055 59.541016 C 145.04435 59.850257 141.91343 63.445946 143.33398 63.464844 L 143.85547 64.017578 C 142.35962 65.012766 142.64634 70.162658 144.99414 71.734375 C 147.89011 74.384088 151.7779 73.129055 155.05273 74.251953 C 159.03574 74.986429 163.47824 73.735292 167.4707 73.587891 C 170.804 73.504136 174.66594 69.783267 173.25 66.585938 C 171.62128 68.472375 170.51899 65.855213 170.20703 66.771484 C 168.56553 66.970325 166.29405 67.302481 164.75781 68.03125 C 163.73807 69.895804 157.14051 68.950759 153.8457 69.101562 C 152.1681 70.828277 150.78514 68.780254 151.01758 66.978516 C 149.60758 65.785697 150.84025 62.323587 153.16211 62.714844 C 155.95397 64.47633 157.56194 59.88782 160.06055 61.714844 C 163.79343 62.424223 165.80337 59.636904 168.73438 58.683594 C 172.76027 57.437521 166.5331 55.447019 167.5293 57.007812 C 167.40391 56.79631 165.9296 56.348628 164.23633 56.3125 z M 188.75977 57.882812 C 187.84498 57.870548 184.54406 58.871056 185.25977 60.195312 L 185.26953 61.023438 C 185.66982 60.638795 184.52135 62.329525 185.10547 61.603516 C 188.22519 63.172095 185.22098 69.109082 188.89648 70.761719 C 190.51638 73.569038 193.97267 74.553721 196.30469 73.441406 C 199.26727 72.400146 194.15877 68.715483 194.1582 66.029297 C 194.43509 61.937505 190.12088 61.219998 188.98633 57.953125 C 188.9717 57.908059 188.89045 57.884565 188.75977 57.882812 z M 53.373047 59.009766 C 52.399568 59.075493 51.498874 59.569295 50.939453 60.625 L 51.375 60.443359 C 51.721507 60.586944 51.151097 63.14997 51.730469 64.056641 C 52.640178 67.422915 54.339881 70.437631 55.972656 73.398438 C 58.357391 72.224819 61.633429 75.878979 62.957031 72.927734 C 61.893378 70.199407 59.932818 66.050983 57.972656 63.320312 C 58.005526 60.787056 55.5147 58.865166 53.373047 59.009766 z "
       transform="matrix(0.26458333,0,0,0.26458333,0,229.26667)"
       id="path2662" />
    <path
       inkscape:connector-curvature="0"
       id="path2370"
       style="font-style:normal;font-variant:normal;font-weight:normal;font-stretch:normal;font-size:medium;line-height:125%;font-family:Elegante;-inkscape-font-specification:Elegante;letter-spacing:1.0274142px;word-spacing:0px;fill:#ff00cc;fill-opacity:1;stroke:#ff00cc;stroke-width:0.52916652;stroke-linecap:round;stroke-linejoin:round;stroke-miterlimit:4;stroke-dasharray:none;stroke-opacity:1"
       d="m 32.929309,259.13901 -0.07086,-0.11022 0.04724,-0.0945 q 2.235905,-1.5116 3.243637,-2.63742 h -0.409391 l -0.13384,-0.10235 q 0.06298,-0.14171 0.73218,-0.11809 l 1.369886,-1.53522 h 0.921129 l -1.385631,1.53522 h 0.991986 l 0.102348,0.11022 q -0.02362,0.14171 -1.243919,0.11022 -0.944748,1.0471 -1.889497,2.09419 -1.558835,1.75566 -1.582454,1.92099 l 0.118094,0.0709 q 0.913257,0.0472 2.755516,-1.44862 l 0.07086,0.11022 q -0.0079,0.33066 -1.283283,0.99199 -1.2203,0.62983 -1.65331,0.62983 -0.48812,0 -0.48812,-0.49599 0,-0.55898 0.543231,-1.18881 0.480247,-0.48025 0.960494,-0.9605 -0.771545,0.53536 -1.716293,1.11796 z" />
    <path
       inkscape:connector-curvature="0"
       id="path2372"
       style="font-style:normal;font-variant:normal;font-weight:normal;font-stretch:normal;font-size:medium;line-height:125%;font-family:Elegante;-inkscape-font-specification:Elegante;letter-spacing:1.0274142px;word-spacing:0px;fill:#ff00cc;fill-opacity:1;stroke:#ff00cc;stroke-width:0.52916652;stroke-linecap:round;stroke-linejoin:round;stroke-miterlimit:4;stroke-dasharray:none;stroke-opacity:1"
       d="m 42.988297,257.35186 h 0.889638 l -2.960212,3.3696 q 0.97624,-0.33853 2.149303,-1.25966 0.188949,-0.18895 0.621959,-0.51174 l 0.0866,-0.008 0.05511,0.0787 -0.02362,0.0787 q -0.362154,0.52749 -1.543089,1.14945 -1.645437,0.86602 -1.669056,0.88176 -0.393645,0.26768 -1.401377,1.28329 -1.062842,1.06284 -1.661183,1.50372 -0.991985,0.72431 -1.787149,0.72431 -0.59834,0 -0.59834,-0.57473 0,-0.929 1.747784,-1.80289 0.464502,-0.23619 2.590186,-1.03135 l 1.432868,-1.6848 q -1.51947,1.1022 -2.330379,1.1022 -0.259806,0 -0.440883,-0.20469 -0.18895,-0.2047 -0.18895,-0.4645 0,-0.496 0.850274,-1.36989 0.881765,-0.89751 0.889638,-0.97624 l -0.110221,-0.0787 q -0.338535,-0.008 -1.157317,0.77155 -0.850273,0.81091 -0.905384,0.81878 l -0.102347,-0.0787 q 0.02362,-0.2913 0.97624,-0.99986 0.944748,-0.71643 1.27541,-0.71643 0.448756,0 0.448756,0.56685 0,0.44088 -0.834528,1.35414 -0.834528,0.90538 -0.834528,1.05497 0,0.10234 0.173204,0.10234 1.306902,0 4.361589,-3.0783 z m -7.258818,7.09348 q 0.936876,0 1.983972,-1.07071 0.06298,-0.0709 1.511598,-1.85013 -1.802895,0.69281 -2.298888,0.94475 -1.566708,0.80303 -1.566708,1.61394 0,0.36215 0.370026,0.36215 z" />
    <path
       inkscape:connector-curvature="0"
       id="path2374"
       style="font-style:normal;font-variant:normal;font-weight:normal;font-stretch:normal;font-size:medium;line-height:125%;font-family:Elegante;-inkscape-font-specification:Elegante;letter-spacing:1.0274142px;word-spacing:0px;fill:#ff00cc;fill-opacity:1;stroke:#ff00cc;stroke-width:0.52916652;stroke-linecap:round;stroke-linejoin:round;stroke-miterlimit:4;stroke-dasharray:none;stroke-opacity:1"
       d="m 48.693446,256.16305 q 2.416981,-1.50373 2.944466,-1.88162 2.117811,-1.51947 2.117811,-2.354 0,-0.3779 -0.393645,-0.3779 -0.897511,0 -2.542948,1.88949 -0.480247,0.54324 -2.125684,2.72403 z m -0.598341,2.77913 0.05511,0.0787 q -0.0079,0.37003 -1.27541,1.02348 -1.204554,0.62196 -1.661183,0.62196 -0.495993,0 -0.495993,-0.51174 0,-0.39364 0.307044,-0.8424 0.03936,-0.0472 0.574722,-0.70856 -0.338535,0.23619 -0.850274,0.51961 l -0.0866,-0.10235 0.04724,-0.0866 q 0.558976,-0.36215 1.125825,-0.72431 0.645578,-0.44088 1.007731,-0.85814 0.787291,-0.94475 1.574581,-1.8895 1.480106,-1.72416 2.598058,-2.7319 1.558835,-1.38563 2.393363,-1.38563 0.228314,0 0.385773,0.18108 0.165331,0.1732 0.165331,0.40152 0,0.81878 -1.173063,1.79502 -0.755799,0.62983 -2.393363,1.59033 -1.582454,0.929 -1.889497,1.1888 -0.692815,0.61409 -1.606072,1.70842 -0.755799,0.89752 -1.503725,1.8029 -0.07873,0.0866 -0.173204,0.28342 l 0.13384,0.0866 q 0.590467,0.0236 1.606072,-0.67707 1.110079,-0.76368 1.133698,-0.76368 z" />
    <path
       inkscape:connector-curvature="0"
       id="path2376"
       style="font-style:normal;font-variant:normal;font-weight:normal;font-stretch:normal;font-size:medium;line-height:125%;font-family:Elegante;-inkscape-font-specification:Elegante;letter-spacing:1.0274142px;word-spacing:0px;fill:#ff00cc;fill-opacity:1;stroke:#ff00cc;stroke-width:0.52916652;stroke-linecap:round;stroke-linejoin:round;stroke-miterlimit:4;stroke-dasharray:none;stroke-opacity:1"
       d="m 52.641091,258.91857 0.07873,0.12596 -0.03149,0.0787 q -2.149303,1.55096 -2.968085,1.55096 -1.03135,0 -1.03135,-0.79516 0,-0.85027 1.078588,-1.71629 1.03135,-0.82666 1.897369,-0.82666 0.495993,0 0.495993,0.40939 0,0.47238 -0.755798,0.83453 -0.700689,0.29917 -1.401377,0.60621 -0.755799,0.39365 -0.755799,0.9605 0,0.28342 0.354281,0.28342 0.747925,0 1.881624,-0.7558 1.141571,-0.75579 1.157316,-0.75579 z m -2.487837,-0.11022 q 1.771403,-0.5826 1.771403,-1.05497 0,-0.18108 -0.173204,-0.18108 -0.606213,0 -1.598199,1.23605 z" />
    <g
       id="g2660">
      <path
         inkscape:connector-curvature="0"
         id="path890"
         d="m 3.5251599,251.01176 c 1.0645659,-0.25929 1.8486447,0.46408 2.7625572,0.90563 0.8672122,0.0494 2.5291604,1.31866 2.3943468,0.0275 -0.1774002,-1.30371 -1.4659161,-2.0961 -2.5940132,-2.55296 -1.0654159,-0.49019 -2.2821888,-0.54113 -3.1048697,-1.47333 -0.9629053,-0.68496 -1.6664762,-2.28003 -0.6542451,-3.22726 0.4043491,-1.03163 1.3975624,-1.70323 2.2101067,-2.41726 1.0108618,-0.76394 2.0379207,-1.55141 3.350255,-1.67412 0.8042381,-0.0244 2.2264024,-0.72194 1.7675093,0.67424 0.09528,1.15124 -0.5006465,1.94717 -1.4855914,2.44047 -1.2259595,0.16917 -2.1606418,1.10475 -3.2312978,1.67486 -0.642449,0.43078 -0.1780169,-0.43576 -0.2550265,0.0998 -0.2042734,0.94755 1.4193978,1.26931 2.0392392,1.87573 1.2590631,0.29703 2.2269006,0.89515 2.8700217,2.04309 0.8907669,0.6416 1.8930289,1.44798 1.7254429,2.67876 0.196573,0.95581 0.113295,2.07102 -0.981654,2.3863 -0.6953907,0.91772 -1.8995128,0.37768 -2.8473388,0.24751 -1.2060783,-0.0728 -2.3215142,-0.76695 -3.1274908,-1.59032 -0.3874976,-0.62038 -0.8577592,-2.18914 -0.825039,-2.28168 l -0.028773,-0.0739"
         style="font-style:normal;font-variant:normal;font-weight:normal;font-stretch:normal;font-size:medium;line-height:125%;font-family:'Fatboy Slim BLTC 2 BRK';-inkscape-font-specification:'Fatboy Slim BLTC 2 BRK';letter-spacing:1.45936847px;word-spacing:0px;fill:url(#linearGradient905);fill-opacity:1;stroke:none;stroke-width:0.52916664;stroke-linecap:round;stroke-linejoin:round;stroke-miterlimit:4;stroke-dasharray:none;stroke-opacity:1" />
      <path
         inkscape:connector-curvature="0"
         id="path892"
         d="m 13.477777,245.30678 c 0.473643,-0.89383 1.873677,-0.2617 1.861027,0.71322 0.518626,0.72249 1.037033,1.82047 1.318458,2.54234 -0.350203,0.78085 -1.217033,-0.18615 -1.847994,0.12437 -0.432005,-0.78338 -0.881614,-1.58098 -1.122308,-2.47164 -0.153292,-0.23989 -0.0021,-0.91812 -0.09378,-0.95611 m -2.731086,-1.88981 c 0.698008,-1.01417 1.968689,-1.60117 3.203162,-1.59654 1.147342,-0.55417 2.415825,-0.12997 3.598714,-0.55111 0.859863,0.30891 2.251785,-0.24453 2.822446,0.48986 0.377287,0.39591 1.032037,0.837 -9.46e-4,0.72182 -2.06069,-0.003 -4.224164,-0.15733 -6.158966,0.69053 -0.552786,-0.10944 -1.205605,0.40422 -1.728728,0.58244 -0.511588,0.41831 -1.741721,0.59479 -1.698223,-0.44515 0.188116,0.0397 -0.05161,-0.0996 0.01366,0.0406"
         style="font-style:normal;font-variant:normal;font-weight:normal;font-stretch:normal;font-size:medium;line-height:125%;font-family:'Fatboy Slim BLTC 2 BRK';-inkscape-font-specification:'Fatboy Slim BLTC 2 BRK';letter-spacing:1.45936847px;word-spacing:0px;fill:url(#linearGradient907);fill-opacity:1;stroke:none;stroke-width:0.52916664;stroke-linecap:round;stroke-linejoin:round;stroke-miterlimit:4;stroke-dasharray:none;stroke-opacity:1" />
      <path
         inkscape:connector-curvature="0"
         id="path894"
         d="m 20.216881,246.64537 c 0.250392,-1.29652 -0.322378,-2.68859 0.215161,-3.91567 0.531738,-1.01231 0.765678,-2.35411 1.915329,-2.90484 0.867238,-0.80416 2.084421,-0.0967 3.112209,-0.22235 0.954293,-0.11498 2.144578,0.92003 1.60681,1.8876 0.153769,1.06646 0.118426,2.27525 -1.01044,2.81941 -0.656155,0.87133 -1.877069,1.32567 -2.069852,2.37599 -0.140939,0.71419 1.265914,-0.11331 1.859222,0.0257 1.475854,-0.084 2.958168,0.0568 4.43095,0.14225 -0.166703,0.43254 -1.130109,0.2013 -0.870541,0.75726 -0.797836,-0.20598 -1.744963,0.12035 -2.44281,0.47285 -0.717966,0.053 -1.27989,-0.0627 -1.874262,0.40086 -0.858565,-0.21714 -1.683978,-0.28963 -2.552026,-0.2172 -0.391133,-0.1559 -0.507884,0.8176 -0.984526,0.52654 -0.401784,0.084 -0.101681,0.40948 -0.790072,0.18945 -0.660016,-0.50323 -0.787443,-1.87051 -0.524439,-2.42416 0.02058,-0.008 0.04556,0.27565 -0.01653,0.10184 m 4.161228,-6.05785 c -0.912225,-0.11859 -1.803034,0.65051 -2.323851,1.35895 0.09309,1.20371 0.06169,2.52562 -0.065,3.76933 0.555206,-0.0541 0.350126,0.0979 0.617544,-0.0581 0.268436,0.62414 1.094566,-0.91821 1.452917,-0.64258 0.820549,-0.56796 1.324463,-1.37221 2.01926,-2.02359 -0.222733,-0.17621 0.0072,-0.93073 0.190029,-1.03301 -0.420844,-0.0105 -0.07295,-0.28567 -0.224956,-0.0105 0.317999,-0.84063 0.298524,0.48627 -0.01543,-0.40353 -0.253507,-0.71025 -0.831881,-0.8869 -1.342097,-0.70701 -0.290374,-0.0236 -0.302649,-0.26194 -0.378685,-0.33877"
         style="font-style:normal;font-variant:normal;font-weight:normal;font-stretch:normal;font-size:medium;line-height:125%;font-family:'Fatboy Slim BLTC 2 BRK';-inkscape-font-specification:'Fatboy Slim BLTC 2 BRK';letter-spacing:1.45936847px;word-spacing:0px;fill:url(#linearGradient909);fill-opacity:1;stroke:none;stroke-width:0.52916658;stroke-linecap:round;stroke-linejoin:round;stroke-miterlimit:4;stroke-dasharray:none;stroke-opacity:1" />
      <path
         inkscape:connector-curvature="0"
         id="path896"
         d="m 29.308562,246.23785 c 0.324888,-0.20986 0.04109,-1.52753 -0.0769,-1.24556 0.385042,-0.48 0.418807,-0.68516 0.521271,-0.75346 0.330365,-0.37138 0.133786,0.28869 0.616134,0.002 0.02399,0.48777 0.588295,0.68305 0.709054,0.39837 0.956856,0.50217 2.098801,-0.61458 3.07018,-0.0838 0.460127,-0.42174 1.680226,0.1587 1.382012,-0.28334 0.375611,-0.30232 0.867811,0.47328 0.345833,0.54113 0.03195,0.72388 -1.125972,-0.0177 -1.676262,0.39809 -0.835817,0.14169 -1.830856,0.85225 -2.367718,0.62706 -0.278096,0.40469 -0.884521,0.18868 -0.72068,0.80919 -0.569985,0.27488 0.310718,1.14425 0.378797,1.00686 0.98789,0.28411 1.915651,-0.2341 2.953705,-0.2286 0.470323,0.29 1.1346,-0.40817 1.687287,-0.60924 0.228986,0.15988 0.120596,0.19173 0.16645,0.15035 0.265943,0.0435 1.256202,-0.28414 0.890188,0.43828 0.272616,0.73404 -1.270611,0.93205 -1.766047,1.29133 -0.974381,0.28482 -1.980367,0.13366 -2.987155,0.27339 -0.789777,-0.2394 -1.90746,0.38223 -2.534027,-0.53967 -0.738131,-0.41299 -0.682318,-2.02485 -0.637097,-2.24857 m 1.632124,-4.79776 c 0.354661,-0.89149 1.625707,-1.20461 2.58661,-1.32888 0.997879,0.048 1.981832,-0.55019 2.907465,-0.26457 0.728698,-0.209 1.511914,0.40194 1.148371,0.95136 -0.510316,-0.0885 0.376367,0.34142 -0.339686,0.187 -0.07215,0.39959 -1.0686,-0.11389 -1.202264,0.14158 -0.643541,-0.35776 -1.881182,0.0732 -2.596007,0.43915 -0.576604,0.50718 -2.159915,0.70832 -2.337038,0.12623 0.345661,-0.31547 -0.219622,-0.23814 -0.109041,-0.0281"
         style="font-style:normal;font-variant:normal;font-weight:normal;font-stretch:normal;font-size:medium;line-height:125%;font-family:'Fatboy Slim BLTC 2 BRK';-inkscape-font-specification:'Fatboy Slim BLTC 2 BRK';letter-spacing:1.45936847px;word-spacing:0px;fill:url(#linearGradient911);fill-opacity:1;stroke:none;stroke-width:0.52916664;stroke-linecap:round;stroke-linejoin:round;stroke-miterlimit:4;stroke-dasharray:none;stroke-opacity:1" />
      <path
         inkscape:connector-curvature="0"
         id="path898"
         d="m 37.923757,246.05816 c -0.375856,-0.005 0.4526,-0.95627 -0.07228,-1.03809 0.387437,-0.43204 0.32901,-0.5284 0.822408,-0.74677 -0.622923,0.12934 0.502836,-0.26544 0.525415,0.33089 0.969061,0.82701 1.944175,-0.071 3.036567,0.0322 0.529209,-0.76069 2.023474,-0.39807 2.089826,-0.28615 -0.263576,-0.41296 1.384032,0.11345 0.318846,0.44314 -0.775496,0.25223 -1.307713,0.98976 -2.295372,0.80207 -0.66109,-0.4834 -1.086088,0.73073 -1.824769,0.26467 -0.614326,-0.10352 -0.940904,0.81247 -0.567843,1.12807 -0.0615,0.47671 0.304355,1.01834 0.748221,0.56148 0.871752,-0.0399 2.617606,0.2105 2.887414,-0.28283 0.406464,-0.19282 1.007677,-0.2807 1.441992,-0.33331 0.08254,-0.24243 0.374023,0.44972 0.804954,-0.0494 0.374634,0.84596 -0.6472,1.83066 -1.529135,1.85282 -1.056339,0.039 -2.231619,0.36971 -3.285455,0.17538 -0.866467,-0.2971 -1.895167,0.035 -2.661391,-0.66607 -0.621188,-0.41585 -0.697211,-1.77842 -0.301434,-2.04173 m 1.798883,-4.79452 c -0.05668,-1.17217 1.55473,-1.13666 2.357522,-1.21892 0.831296,-0.83672 1.98753,-0.49075 2.952207,-0.47049 0.826806,-0.51789 0.517339,0.5736 1.178334,0.68824 0.410848,0.41308 -0.360417,0.20229 -0.266726,0.42705 -0.300576,0.3656 -1.220131,0.19318 -1.665704,-0.065 -0.966711,0.23925 -1.772985,0.92029 -2.710684,1.08254 -0.807839,0.15356 -1.973378,0.67227 -2.111799,-0.56828 l 0.07092,0.0626 0.15986,0.15314"
         style="font-style:normal;font-variant:normal;font-weight:normal;font-stretch:normal;font-size:medium;line-height:125%;font-family:'Fatboy Slim BLTC 2 BRK';-inkscape-font-specification:'Fatboy Slim BLTC 2 BRK';letter-spacing:1.45936847px;word-spacing:0px;fill:url(#linearGradient913);fill-opacity:1;stroke:none;stroke-width:0.52916664;stroke-linecap:round;stroke-linejoin:round;stroke-miterlimit:4;stroke-dasharray:none;stroke-opacity:1" />
      <path
         inkscape:connector-curvature="0"
         id="path900"
         d="m 49.016438,245.19325 c -0.216416,-0.40043 0.955195,-0.68874 0.986158,-0.59335 0.300184,0.86436 1.441629,1.05456 1.368369,2.13718 1.51e-4,0.71072 1.351661,1.6855 0.56781,1.961 -0.617012,0.2943 -1.531402,0.0338 -1.959999,-0.70897 -0.972477,-0.43726 -0.177661,-2.00802 -1.003086,-2.42304 -0.154547,0.19209 0.149359,-0.25542 0.04345,-0.15365 m -2.303295,-2.05415 c 0.482246,-1.18223 1.821399,-1.43196 2.945585,-1.62112 0.962377,-0.42595 2.005505,-0.51555 3.029359,-0.6418 1.065325,0.008 2.090172,-0.21897 3.028491,0.33739 0.85366,0.0145 1.05715,1.48068 -0.07657,1.0172 -1.609963,0.0303 -3.229745,-0.0291 -4.830352,0.15757 -0.988485,0.31653 -2.10026,0.49329 -2.69471,1.41141 -0.511751,0.24363 -0.664682,-0.0458 -0.780902,-0.15291 -0.283749,-0.26348 -1.324729,0.0835 -0.87866,-0.46261"
         style="font-style:normal;font-variant:normal;font-weight:normal;font-stretch:normal;font-size:medium;line-height:125%;font-family:'Fatboy Slim BLTC 2 BRK';-inkscape-font-specification:'Fatboy Slim BLTC 2 BRK';letter-spacing:1.45936847px;word-spacing:0px;fill:url(#linearGradient915);fill-opacity:1;stroke:none;stroke-width:0.52916664;stroke-linecap:round;stroke-linejoin:round;stroke-miterlimit:4;stroke-dasharray:none;stroke-opacity:1" />
      <path
         inkscape:connector-curvature="0"
         id="path902"
         d="m 57.575808,250.29421 c 1.120908,0.11241 2.149123,0.5339 3.172148,0.99904 0.713885,0.013 1.454818,0.008 1.757123,0.34998 0.394355,-0.83345 -0.761718,-1.97217 -1.661573,-2.29922 -1.057268,-0.89951 -2.618405,-0.85537 -3.519984,-1.96333 -0.885045,-0.73863 -1.174341,-1.81985 -1.108061,-2.90002 0.655582,-1.12232 1.880301,-1.70907 2.822922,-2.52294 0.771112,-1.13588 2.129562,-1.22496 3.222098,-1.85349 1.131888,-0.18355 1.147763,1.60965 0.890568,2.36467 -0.705231,0.83006 -1.695226,1.37554 -2.732482,1.75869 -0.539343,0.40735 -2.154527,0.753 -1.848651,1.06378 0.199082,0.87509 1.698399,1.09936 2.428764,1.75885 0.913163,0.77851 2.389566,0.8327 2.9645,2.01812 0.557057,1.12029 1.35299,2.22996 0.819571,3.54139 -0.567018,0.74597 -1.489125,1.58757 -2.532229,1.24993 -0.991005,0.11477 -1.84037,-0.60095 -2.741176,-0.89447 -1.018334,-0.21021 -1.43182,-1.2296 -1.772125,-2.09901 -0.287695,-0.13695 -0.238513,-1.12149 -0.360035,-0.69201"
         style="font-style:normal;font-variant:normal;font-weight:normal;font-stretch:normal;font-size:medium;line-height:125%;font-family:'Fatboy Slim BLTC 2 BRK';-inkscape-font-specification:'Fatboy Slim BLTC 2 BRK';letter-spacing:1.45936847px;word-spacing:0px;fill:url(#linearGradient917);fill-opacity:1;stroke:none;stroke-width:0.5291667;stroke-linecap:round;stroke-linejoin:round;stroke-miterlimit:4;stroke-dasharray:none;stroke-opacity:1" />
    </g>
    <g
       id="g2585"
       transform="matrix(0.48296291,0.12940952,-0.12940952,0.48296291,40.669614,151.43881)"
       style="stroke-width:2">
      <ellipse
         inkscape:transform-center-y="-1.0289877"
         inkscape:transform-center-x="2.7127857"
         ry="1.9176589"
         rx="2.0579753"
         cy="226.70143"
         cx="-4.2094951"
         id="path2569"
         style="opacity:1;fill:#ff80e5;fill-opacity:1;stroke:none;stroke-width:1.05833328;stroke-linecap:round;stroke-linejoin:round;stroke-miterlimit:4;stroke-dasharray:none;stroke-dashoffset:0;stroke-opacity:1;paint-order:fill markers stroke" />
      <ellipse
         transform="rotate(75)"
         style="opacity:1;fill:#ff80e5;fill-opacity:1;stroke:none;stroke-width:1.05833328;stroke-linecap:round;stroke-linejoin:round;stroke-miterlimit:4;stroke-dasharray:none;stroke-dashoffset:0;stroke-opacity:1;paint-order:fill markers stroke"
         id="ellipse2571"
         cx="216.87053"
         cy="59.357689"
         rx="2.0579753"
         ry="1.9176589"
         inkscape:transform-center-x="-0.29180798"
         inkscape:transform-center-y="-2.8866735" />
      <ellipse
         inkscape:transform-center-y="-1.1906199"
         inkscape:transform-center-x="-2.6458335"
         ry="1.9176589"
         rx="2.0579753"
         cy="-161.00038"
         cx="159.37527"
         id="ellipse2573"
         style="opacity:1;fill:#ff80e5;fill-opacity:1;stroke:none;stroke-width:1.05833328;stroke-linecap:round;stroke-linejoin:round;stroke-miterlimit:4;stroke-dasharray:none;stroke-dashoffset:0;stroke-opacity:1;paint-order:fill markers stroke"
         transform="rotate(135)" />
      <ellipse
         transform="rotate(-150)"
         style="opacity:1;fill:#ff80e5;fill-opacity:1;stroke:none;stroke-width:1.05833328;stroke-linecap:round;stroke-linejoin:round;stroke-miterlimit:4;stroke-dasharray:none;stroke-dashoffset:0;stroke-opacity:1;paint-order:fill markers stroke"
         id="ellipse2575"
         cx="-115.2818"
         cy="-198.99768"
         rx="2.0579753"
         ry="1.9176589"
         inkscape:transform-center-x="-1.8348359"
         inkscape:transform-center-y="2.2475276" />
      <ellipse
         inkscape:transform-center-y="2.3540328"
         inkscape:transform-center-x="1.6960527"
         ry="1.9176589"
         rx="2.0579753"
         cy="56.466267"
         cx="-223.07086"
         id="ellipse2577"
         style="opacity:1;fill:#ff80e5;fill-opacity:1;stroke:none;stroke-width:1.05833328;stroke-linecap:round;stroke-linejoin:round;stroke-miterlimit:4;stroke-dasharray:none;stroke-dashoffset:0;stroke-opacity:1;paint-order:fill markers stroke"
         transform="rotate(-75)" />
      <ellipse
         ry="1.9176589"
         rx="1.9644309"
         cy="227.63689"
         cx="-1.403165"
         id="path2567"
         style="opacity:1;fill:#800066;fill-opacity:1;stroke:none;stroke-width:1.05833328;stroke-linecap:round;stroke-linejoin:round;stroke-miterlimit:4;stroke-dasharray:none;stroke-dashoffset:0;stroke-opacity:1;paint-order:fill markers stroke" />
    </g>
    <g
       style="stroke-width:2"
       transform="matrix(0.35355339,0.35355339,-0.35355339,0.35355339,100.55447,172.85705)"
       id="g2599">
      <ellipse
         style="opacity:1;fill:#ffe680;fill-opacity:1;stroke:none;stroke-width:1.05833328;stroke-linecap:round;stroke-linejoin:round;stroke-miterlimit:4;stroke-dasharray:none;stroke-dashoffset:0;stroke-opacity:1;paint-order:fill markers stroke"
         id="ellipse2587"
         cx="-4.2094951"
         cy="226.70143"
         rx="2.0579753"
         ry="1.9176589"
         inkscape:transform-center-x="2.7127857"
         inkscape:transform-center-y="-1.0289877" />
      <ellipse
         inkscape:transform-center-y="-2.8866735"
         inkscape:transform-center-x="-0.29180798"
         ry="1.9176589"
         rx="2.0579753"
         cy="59.357689"
         cx="216.87053"
         id="ellipse2589"
         style="opacity:1;fill:#ffe680;fill-opacity:1;stroke:none;stroke-width:1.05833328;stroke-linecap:round;stroke-linejoin:round;stroke-miterlimit:4;stroke-dasharray:none;stroke-dashoffset:0;stroke-opacity:1;paint-order:fill markers stroke"
         transform="rotate(75)" />
      <ellipse
         transform="rotate(135)"
         style="opacity:1;fill:#ffe680;fill-opacity:1;stroke:none;stroke-width:1.05833328;stroke-linecap:round;stroke-linejoin:round;stroke-miterlimit:4;stroke-dasharray:none;stroke-dashoffset:0;stroke-opacity:1;paint-order:fill markers stroke"
         id="ellipse2591"
         cx="159.37527"
         cy="-161.00038"
         rx="2.0579753"
         ry="1.9176589"
         inkscape:transform-center-x="-2.6458335"
         inkscape:transform-center-y="-1.1906199" />
      <ellipse
         inkscape:transform-center-y="2.2475276"
         inkscape:transform-center-x="-1.8348359"
         ry="1.9176589"
         rx="2.0579753"
         cy="-198.99768"
         cx="-115.2818"
         id="ellipse2593"
         style="opacity:1;fill:#ffe680;fill-opacity:1;stroke:none;stroke-width:1.05833328;stroke-linecap:round;stroke-linejoin:round;stroke-miterlimit:4;stroke-dasharray:none;stroke-dashoffset:0;stroke-opacity:1;paint-order:fill markers stroke"
         transform="rotate(-150)" />
      <ellipse
         transform="rotate(-75)"
         style="opacity:1;fill:#ffe680;fill-opacity:1;stroke:none;stroke-width:1.05833328;stroke-linecap:round;stroke-linejoin:round;stroke-miterlimit:4;stroke-dasharray:none;stroke-dashoffset:0;stroke-opacity:1;paint-order:fill markers stroke"
         id="ellipse2595"
         cx="-223.07086"
         cy="56.466267"
         rx="2.0579753"
         ry="1.9176589"
         inkscape:transform-center-x="1.6960527"
         inkscape:transform-center-y="2.3540328" />
      <ellipse
         style="opacity:1;fill:#d45500;fill-opacity:1;stroke:none;stroke-width:1.05833328;stroke-linecap:round;stroke-linejoin:round;stroke-miterlimit:4;stroke-dasharray:none;stroke-dashoffset:0;stroke-opacity:1;paint-order:fill markers stroke"
         id="ellipse2597"
         cx="-1.403165"
         cy="227.63689"
         rx="1.9644309"
         ry="1.9176589" />
    </g>
    <g
       style="stroke-width:2"
       transform="matrix(0.48296291,-0.12940952,0.12940952,0.48296291,17.758206,154.24332)"
       id="g2613">
      <ellipse
         style="opacity:1;fill:#afc6e9;fill-opacity:1;stroke:none;stroke-width:1.05833328;stroke-linecap:round;stroke-linejoin:round;stroke-miterlimit:4;stroke-dasharray:none;stroke-dashoffset:0;stroke-opacity:1;paint-order:fill markers stroke"
         id="ellipse2601"
         cx="-4.2094951"
         cy="226.70143"
         rx="2.0579753"
         ry="1.9176589"
         inkscape:transform-center-x="2.7127857"
         inkscape:transform-center-y="-1.0289877" />
      <ellipse
         inkscape:transform-center-y="-2.8866735"
         inkscape:transform-center-x="-0.29180798"
         ry="1.9176589"
         rx="2.0579753"
         cy="59.357689"
         cx="216.87053"
         id="ellipse2603"
         style="opacity:1;fill:#afc6e9;fill-opacity:1;stroke:none;stroke-width:1.05833328;stroke-linecap:round;stroke-linejoin:round;stroke-miterlimit:4;stroke-dasharray:none;stroke-dashoffset:0;stroke-opacity:1;paint-order:fill markers stroke"
         transform="rotate(75)" />
      <ellipse
         transform="rotate(135)"
         style="opacity:1;fill:#afc6e9;fill-opacity:1;stroke:none;stroke-width:1.05833328;stroke-linecap:round;stroke-linejoin:round;stroke-miterlimit:4;stroke-dasharray:none;stroke-dashoffset:0;stroke-opacity:1;paint-order:fill markers stroke"
         id="ellipse2605"
         cx="159.37527"
         cy="-161.00038"
         rx="2.0579753"
         ry="1.9176589"
         inkscape:transform-center-x="-2.6458335"
         inkscape:transform-center-y="-1.1906199" />
      <ellipse
         inkscape:transform-center-y="2.2475276"
         inkscape:transform-center-x="-1.8348359"
         ry="1.9176589"
         rx="2.0579753"
         cy="-198.99768"
         cx="-115.2818"
         id="ellipse2607"
         style="opacity:1;fill:#afc6e9;fill-opacity:1;stroke:none;stroke-width:1.05833328;stroke-linecap:round;stroke-linejoin:round;stroke-miterlimit:4;stroke-dasharray:none;stroke-dashoffset:0;stroke-opacity:1;paint-order:fill markers stroke"
         transform="rotate(-150)" />
      <ellipse
         transform="rotate(-75)"
         style="opacity:1;fill:#afc6e9;fill-opacity:1;stroke:none;stroke-width:1.05833328;stroke-linecap:round;stroke-linejoin:round;stroke-miterlimit:4;stroke-dasharray:none;stroke-dashoffset:0;stroke-opacity:1;paint-order:fill markers stroke"
         id="ellipse2609"
         cx="-223.07086"
         cy="56.466267"
         rx="2.0579753"
         ry="1.9176589"
         inkscape:transform-center-x="1.6960527"
         inkscape:transform-center-y="2.3540328" />
      <ellipse
         style="opacity:1;fill:#214478;fill-opacity:1;stroke:none;stroke-width:1.05833328;stroke-linecap:round;stroke-linejoin:round;stroke-miterlimit:4;stroke-dasharray:none;stroke-dashoffset:0;stroke-opacity:1;paint-order:fill markers stroke"
         id="ellipse2611"
         cx="-1.403165"
         cy="227.63689"
         rx="1.9644309"
         ry="1.9176589" />
    </g>
    <g
       id="g2627"
       transform="matrix(0.48296291,-0.12940952,0.12940952,0.48296291,27.084768,147.09957)"
       style="stroke-width:2">
      <ellipse
         inkscape:transform-center-y="-1.0289877"
         inkscape:transform-center-x="2.7127857"
         ry="1.9176589"
         rx="2.0579753"
         cy="226.70143"
         cx="-4.2094951"
         id="ellipse2615"
         style="opacity:1;fill:#80ffb3;fill-opacity:1;stroke:none;stroke-width:1.05833328;stroke-linecap:round;stroke-linejoin:round;stroke-miterlimit:4;stroke-dasharray:none;stroke-dashoffset:0;stroke-opacity:1;paint-order:fill markers stroke" />
      <ellipse
         transform="rotate(75)"
         style="opacity:1;fill:#80ffb3;fill-opacity:1;stroke:none;stroke-width:1.05833328;stroke-linecap:round;stroke-linejoin:round;stroke-miterlimit:4;stroke-dasharray:none;stroke-dashoffset:0;stroke-opacity:1;paint-order:fill markers stroke"
         id="ellipse2617"
         cx="216.87053"
         cy="59.357689"
         rx="2.0579753"
         ry="1.9176589"
         inkscape:transform-center-x="-0.29180798"
         inkscape:transform-center-y="-2.8866735" />
      <ellipse
         inkscape:transform-center-y="-1.1906199"
         inkscape:transform-center-x="-2.6458335"
         ry="1.9176589"
         rx="2.0579753"
         cy="-161.00038"
         cx="159.37527"
         id="ellipse2619"
         style="opacity:1;fill:#80ffb3;fill-opacity:1;stroke:none;stroke-width:1.05833328;stroke-linecap:round;stroke-linejoin:round;stroke-miterlimit:4;stroke-dasharray:none;stroke-dashoffset:0;stroke-opacity:1;paint-order:fill markers stroke"
         transform="rotate(135)" />
      <ellipse
         transform="rotate(-150)"
         style="opacity:1;fill:#80ffb3;fill-opacity:1;stroke:none;stroke-width:1.05833328;stroke-linecap:round;stroke-linejoin:round;stroke-miterlimit:4;stroke-dasharray:none;stroke-dashoffset:0;stroke-opacity:1;paint-order:fill markers stroke"
         id="ellipse2621"
         cx="-115.2818"
         cy="-198.99768"
         rx="2.0579753"
         ry="1.9176589"
         inkscape:transform-center-x="-1.8348359"
         inkscape:transform-center-y="2.2475276" />
      <ellipse
         inkscape:transform-center-y="2.3540328"
         inkscape:transform-center-x="1.6960527"
         ry="1.9176589"
         rx="2.0579753"
         cy="56.466267"
         cx="-223.07086"
         id="ellipse2623"
         style="opacity:1;fill:#80ffb3;fill-opacity:1;stroke:none;stroke-width:1.05833328;stroke-linecap:round;stroke-linejoin:round;stroke-miterlimit:4;stroke-dasharray:none;stroke-dashoffset:0;stroke-opacity:1;paint-order:fill markers stroke"
         transform="rotate(-75)" />
      <ellipse
         ry="1.9176589"
         rx="1.9644309"
         cy="227.63689"
         cx="-1.403165"
         id="ellipse2625"
         style="opacity:1;fill:#008033;fill-opacity:1;stroke:none;stroke-width:1.05833328;stroke-linecap:round;stroke-linejoin:round;stroke-miterlimit:4;stroke-dasharray:none;stroke-dashoffset:0;stroke-opacity:1;paint-order:fill markers stroke" />
    </g>
  </g>
</svg>
